<svg width="46" height="46" viewBox="0 0 46 46" fill="none" xmlns="http://www.w3.org/2000/svg">
<path d="M45.9993 23.0951C45.9975 26.1145 45.3993 29.1037 44.239 31.8911C43.0787 34.6785 41.3793 37.2091 39.2383 39.3375C37.0974 41.4659 34.5571 43.1501 31.7635 44.2934C28.9699 45.4367 25.9779 46.0166 22.9596 45.9996C9.29264 45.9711 -0.0897051 34.6544 0.000646907 22.8335C0.0909989 11.1077 9.51139 -0.0615843 23.1355 0.000255598C26.1551 0.00643591 29.1437 0.609657 31.9295 1.77523C34.7153 2.9408 37.2432 4.64574 39.368 6.792C41.4928 8.93826 43.1725 11.4835 44.3106 14.2814C45.4486 17.0792 46.0225 20.0746 45.9993 23.0951ZM16.478 24.0845C16.478 24.7885 16.478 25.3546 16.478 25.9207C16.478 29.2505 16.478 32.5376 16.478 35.8436C16.478 36.3193 16.3306 36.8711 16.7966 37.4086C17.9617 37.5181 19.2123 37.4419 20.4582 37.4562C21.7042 37.4705 23.0832 37.4895 24.3909 37.4562C25.6273 37.4181 26.8827 37.6465 28.2238 37.2564C28.2238 36.6761 28.2571 36.11 28.2618 35.5487C28.2618 32.1856 28.2618 28.8177 28.2618 25.4545C28.2618 24.9788 28.1191 24.4175 28.6945 23.9228H31.1388C31.9948 23.9228 32.8507 23.9228 33.7067 23.9228C34.5627 23.9228 35.3949 24.0655 36.1795 23.7848C36.4648 21.6632 36.403 17.8672 36.0844 16.7731C35.9816 16.7264 35.8727 16.6943 35.761 16.678C32.6827 16.678 29.6044 16.678 26.5261 16.678C26.3111 16.713 26.1027 16.7804 25.9079 16.8778C25.7694 17.5801 25.807 18.3057 26.0173 18.9899C26.5689 19.0184 27.073 19.0612 27.577 19.066C29.289 19.066 30.9961 19.066 32.7081 19.066C33.0992 19.0928 33.4883 19.1436 33.8731 19.2182V21.4254C31.2149 21.6585 28.6089 21.3493 25.9222 21.6252C25.8155 23.1195 25.7869 24.6184 25.8366 26.1157C25.8366 27.5428 25.8366 28.9699 25.8366 30.3969C25.8366 31.824 25.8366 33.351 25.808 34.8352C24.5907 35.2395 23.4303 35.0492 22.3223 35.0445C21.2143 35.0397 20.0683 35.2728 18.8652 34.7971C18.8652 34.212 18.8652 33.6507 18.8652 33.0846C18.8652 29.7215 18.8652 26.3536 18.8652 22.9904C18.8652 22.5528 18.7844 22.1152 18.7368 21.5919C18.0806 21.5681 17.5242 21.5253 16.9631 21.5253C15.0609 21.5253 13.2016 21.5253 11.3184 21.5253C11.0356 21.5575 10.7492 21.5316 10.4767 21.4492C10.2091 21.2764 9.9674 21.0666 9.75867 20.826C9.09292 21.1971 8.48423 21.5063 7.90883 21.8726C7.33343 22.2388 6.60111 22.4624 6.08753 23.1236C7.34431 23.7788 8.65145 24.3323 9.99644 24.779C10.0015 24.6577 10.0315 24.5388 10.0847 24.4297C10.1379 24.3206 10.2131 24.2237 10.3056 24.1451C10.398 24.0664 10.5057 24.0078 10.6219 23.9728C10.7381 23.9378 10.8603 23.9273 10.9808 23.9418C12.5215 23.9418 14.0575 23.9418 15.5983 23.9418C15.8943 23.9699 16.1882 24.0176 16.478 24.0845ZM36.2366 11.1219C35.8133 11.5976 35.5565 11.9496 35.0002 11.883C34.5456 11.8558 34.0899 11.8558 33.6354 11.883C25.8271 11.883 18.0187 11.883 10.2104 11.883C9.60173 11.883 8.96452 11.7451 8.30827 12.0781C8.25912 12.355 8.22578 12.6345 8.20842 12.9153C8.20842 14.6278 8.20842 16.3355 8.20842 18.048C8.24936 18.3923 8.32423 18.7317 8.43192 19.0612H12.6024C14.029 19.0612 15.4556 19.0612 16.8822 19.0612C18.2327 19.0612 19.5975 18.9423 20.91 19.1659C21.2619 19.8223 21.1335 20.4645 21.1335 21.0686C21.1335 24.5459 21.1335 28.0232 21.1335 31.5006C21.1335 32.0524 20.9813 32.647 21.4331 33.1464C22.1008 33.3198 22.8068 33.2714 23.4446 33.0085C23.5015 32.7869 23.5397 32.561 23.5587 32.333C23.5587 27.3161 23.5587 22.2991 23.5587 17.2821C23.5219 17.0785 23.4596 16.8803 23.3733 16.6923C22.8359 16.6923 22.2796 16.6304 21.7232 16.6257C18.4753 16.6257 15.2273 16.6257 11.9794 16.6257C11.5467 16.6257 11.0569 16.7684 10.6717 16.3022C10.5257 15.6473 10.5686 14.9644 10.7953 14.3328C11.1425 14.3091 11.4183 14.271 11.6989 14.271C19.336 14.271 26.9731 14.271 34.6102 14.271C34.9169 14.2291 35.229 14.2829 35.5039 14.4251C35.7788 14.5673 36.0031 14.7909 36.1462 15.0654C36.6217 14.8799 37.0735 14.7277 37.492 14.5564C37.9104 14.3852 38.3242 14.1854 38.7474 14.0141C39.2067 13.8795 39.622 13.6251 39.9505 13.2768L36.2366 11.1219Z" fill="white"/>
</svg>
