<svg width="35" height="35" viewBox="0 0 35 35" fill="none" xmlns="http://www.w3.org/2000/svg">
<path d="M2.24905e-05 17.5017C0.00158421 15.1992 0.45713 12.9196 1.34059 10.7934C2.22406 8.66711 3.51809 6.73594 5.14866 5.11036C6.77923 3.48478 8.71432 2.19669 10.8432 1.31981C12.9721 0.442922 15.253 -0.00555088 17.5554 5.18541e-05C27.1801 0.0375505 35.0272 7.91398 34.9999 17.5017C34.9692 27.2531 27.129 35.0187 17.3474 35C7.81812 34.9795 -0.0153171 27.0792 2.24905e-05 17.5017ZM15.9396 19.2454C15.7692 19.075 15.643 18.971 15.5237 18.8517C14.4488 17.7767 13.3745 16.7017 12.3007 15.6268C11.6189 14.9552 10.6491 14.9245 10.0117 15.5467C9.34526 16.1978 9.35378 17.154 10.0526 17.858C11.6025 19.4193 13.1574 20.976 14.7175 22.5282C15.459 23.2646 16.3538 23.2731 17.0935 22.5282C19.7069 19.9249 22.3141 17.3114 24.915 14.6876C25.1703 14.407 25.34 14.0593 25.4041 13.6854C25.5235 13.0036 25.1314 12.3951 24.5093 12.0951C23.8872 11.7951 23.2225 11.9246 22.6771 12.4598C21.2056 13.92 19.7398 15.3853 18.2797 16.8557C17.5008 17.6483 16.7321 18.4392 15.9396 19.2454Z" fill="#289678"/>
</svg>
