<svg width="34" height="32" viewBox="0 0 34 32" fill="none" xmlns="http://www.w3.org/2000/svg">
<path d="M30.8409 12.0995C29.9235 12.0995 29.0887 12.5714 28.6397 13.2963L18.9131 10.7478C19.351 10.3138 19.6206 9.72603 19.6206 9.07967C19.6206 8.74616 19.3352 8.4757 18.9831 8.4757C18.631 8.4757 18.3456 8.74616 18.3456 9.07967C18.3456 9.74572 17.7736 10.2876 17.0705 10.2876C16.3675 10.2876 15.7955 9.74572 15.7955 9.07967C15.7955 8.41361 16.3675 7.87173 17.0705 7.87173C17.4226 7.87173 17.708 7.60128 17.708 7.26777V5.69745H18.9831C19.2246 5.69745 19.4453 5.5682 19.5533 5.36358L21.4658 1.73978C21.5646 1.55255 21.5541 1.33023 21.4379 1.15218C21.3218 0.974135 21.1166 0.865723 20.8956 0.865723H13.2454C13.0244 0.865723 12.8192 0.974135 12.7031 1.15218C12.587 1.33017 12.5764 1.55255 12.6752 1.73978L14.5878 5.36358C14.6958 5.5682 14.9165 5.69745 15.158 5.69745H16.433V6.74026C15.3344 7.00909 14.5204 7.95605 14.5204 9.07967C14.5204 9.72609 14.7904 10.3136 15.2284 10.7476L5.50074 13.2963C5.05109 12.5707 4.21677 12.0995 3.30008 12.0995C1.89397 12.0995 0.75 13.1833 0.75 14.5154V31.1848C0.75 31.5183 1.03542 31.7888 1.38752 31.7888H14.2017C14.5538 31.7888 14.8392 31.5183 14.8392 31.1848C14.8392 30.8513 14.5538 30.5809 14.2017 30.5809H2.02504V16.9312H32.116V30.5809H19.9394C19.5872 30.5809 19.3018 30.8513 19.3018 31.1848C19.3018 31.5183 19.5872 31.7888 19.9394 31.7888H32.7535C33.1056 31.7888 33.391 31.5183 33.391 31.1848C33.391 30.526 33.391 15.2982 33.391 14.5154C33.391 13.1833 32.2471 12.0995 30.8409 12.0995ZM15.5519 4.48952L14.2769 2.07366H19.8641L18.5891 4.48952H15.5519ZM4.57512 15.7233H2.02504V14.5154C2.02504 13.8493 2.59702 13.3074 3.30008 13.3074C3.99651 13.3074 4.57512 13.8456 4.57512 14.5154V15.7233ZM28.2909 14.5154V15.7233H5.85016C5.85016 15.7233 5.84857 14.4776 5.84806 14.4586L17.0705 11.5182L28.293 14.4586C28.2925 14.4776 28.2909 14.4964 28.2909 14.5154ZM32.116 15.7233H29.5659V14.5154C29.5659 13.8464 30.1425 13.3074 30.8409 13.3074C31.544 13.3074 32.116 13.8493 32.116 14.5154V15.7233Z" fill="#289678"/>
<path d="M8.52795 19.9509V27.5609C8.52795 27.8944 8.81337 28.1648 9.16547 28.1648C9.51758 28.1648 9.80299 27.8944 9.80299 27.5609V19.9509C9.80299 19.6174 9.51758 19.3469 9.16547 19.3469C8.81337 19.3469 8.52795 19.6174 8.52795 19.9509Z" fill="#289678"/>
<path d="M4.57513 19.9509V27.5609C4.57513 27.8944 4.86055 28.1648 5.21265 28.1648C5.56476 28.1648 5.85017 27.8944 5.85017 27.5609V19.9509C5.85017 19.6174 5.56476 19.3469 5.21265 19.3469C4.86055 19.3469 4.57513 19.6174 4.57513 19.9509Z" fill="#289678"/>
<path d="M29.566 27.5609V19.9509C29.566 19.6174 29.2805 19.3469 28.9284 19.3469C28.5763 19.3469 28.2909 19.6174 28.2909 19.9509V27.5609C28.2909 27.8944 28.5763 28.1648 28.9284 28.1648C29.2805 28.1648 29.566 27.8944 29.566 27.5609Z" fill="#289678"/>
<path d="M25.6131 27.5609V19.9509C25.6131 19.6174 25.3277 19.3469 24.9756 19.3469C24.6235 19.3469 24.3381 19.6174 24.3381 19.9509V27.5609C24.3381 27.8944 24.6235 28.1648 24.9756 28.1648C25.3277 28.1648 25.6131 27.8944 25.6131 27.5609Z" fill="#289678"/>
<path d="M21.6604 27.5609V19.9509C21.6604 19.6174 21.3749 19.3469 21.0228 19.3469C20.6707 19.3469 20.3853 19.6174 20.3853 19.9509V27.5609C20.3853 27.8944 20.6707 28.1648 21.0228 28.1648C21.3749 28.1648 21.6604 27.8944 21.6604 27.5609Z" fill="#289678"/>
<path d="M17.0707 19.3469C16.7186 19.3469 16.4332 19.6174 16.4332 19.9509V27.5609C16.4332 27.8944 16.7186 28.1648 17.0707 28.1648C17.4228 28.1648 17.7082 27.8944 17.7082 27.5609V19.9509C17.7082 19.6174 17.4228 19.3469 17.0707 19.3469Z" fill="#289678"/>
<path d="M12.4804 19.9509V27.5609C12.4804 27.8944 12.7658 28.1648 13.1179 28.1648C13.47 28.1648 13.7554 27.8944 13.7554 27.5609V19.9509C13.7554 19.6174 13.47 19.3469 13.1179 19.3469C12.7658 19.3469 12.4804 19.6174 12.4804 19.9509Z" fill="#289678"/>
<path d="M17.0707 31.789C17.4228 31.789 17.7082 31.5186 17.7082 31.185C17.7082 30.8515 17.4228 30.5811 17.0707 30.5811C16.7186 30.5811 16.4332 30.8515 16.4332 31.185C16.4332 31.5186 16.7186 31.789 17.0707 31.789Z" fill="#289678"/>
</svg>
