<svg width="21" height="21" viewBox="0 0 21 21" fill="none" xmlns="http://www.w3.org/2000/svg">
<path d="M1.34649e-05 10.4582C0.000948452 9.08231 0.273679 7.72014 0.802599 6.44959C1.33152 5.17905 2.10625 4.02507 3.08245 3.0537C4.05865 2.08234 5.21717 1.31264 6.49172 0.788653C7.76626 0.264669 9.1318 -0.00331694 10.5102 3.09855e-05C16.2725 0.0224384 20.9704 4.72901 20.9541 10.4582C20.9357 16.2851 16.2419 20.9255 10.3857 20.9143C4.68063 20.9021 -0.00917021 16.1812 1.34649e-05 10.4582ZM9.54287 11.5001C9.44083 11.3983 9.36532 11.3361 9.29389 11.2648C8.65035 10.6225 8.00716 9.98015 7.3643 9.33781C6.95614 8.93651 6.37552 8.91818 5.99389 9.28994C5.59491 9.67901 5.60001 10.2504 6.01838 10.671C6.94627 11.604 7.87722 12.5343 8.81124 13.4618C9.25512 13.9018 9.79083 13.9069 10.2337 13.4618C11.7983 11.9062 13.3592 10.3444 14.9163 8.7766C15.0692 8.60893 15.1708 8.40114 15.2092 8.17772C15.2806 7.77031 15.0459 7.4067 14.6735 7.22744C14.301 7.04818 13.9031 7.12559 13.5765 7.4454C12.6956 8.31793 11.818 9.19352 10.9439 10.0722C10.4776 10.5458 10.0174 11.0184 9.54287 11.5001Z" fill="#8D8D8D" fill-opacity="0.3"/>
</svg>
