<svg width="34" height="49" viewBox="0 0 34 49" fill="none" xmlns="http://www.w3.org/2000/svg">
<path d="M34 43.3599V48.1834C34 48.6344 33.6241 49 33.1605 49C32.6969 49 32.321 48.6344 32.321 48.1834V43.3599C32.321 39.6043 29.1964 36.5649 25.3349 36.565C23.5078 36.565 21.8501 35.6597 20.9003 34.1431C20.6592 33.758 20.7846 33.2555 21.1806 33.021C21.5765 32.7863 22.093 32.9084 22.3343 33.2936C22.9767 34.3195 24.0984 34.9319 25.3349 34.9319C30.124 34.9317 34 38.7013 34 43.3599ZM19.3499 35.1746C19.4487 35.6153 19.1615 36.0503 18.7085 36.1463C16.4991 36.6145 14.252 36.1458 12.4629 34.958C10.6918 36.8042 8.35185 36.565 8.66509 36.565C4.80388 36.5649 1.67902 39.604 1.67902 43.3599V48.1834C1.67902 48.6344 1.30313 49 0.839509 49C0.37589 49 0 48.6344 0 48.1834V43.3599C0 38.7019 3.87528 34.9319 8.66488 34.9319C10.6023 34.9319 12.1729 33.4136 12.1729 31.5287V31.3136C8.50853 29.6094 5.93648 26.028 5.7797 21.8576C4.27174 21.5049 3.14816 20.1921 3.14816 18.6301V14.397C3.1023 12.3249 3.41858 7.13539 7.30876 3.48803C12.1123 -1.01591 19.8157 -0.729811 25.48 1.92248C26.0321 2.18122 26.116 2.90674 25.6575 3.28246C28.527 3.96326 31.0015 5.67906 32.5912 8.13466C32.6733 8.26112 32.8235 8.45965 32.7843 8.77637C32.7599 8.97347 32.6996 9.14025 32.5435 9.29438C31.5203 10.3036 30.9569 11.6411 30.9569 13.0604V18.6303C30.9569 19.0813 30.581 19.4469 30.1174 19.4469C29.6538 19.4469 29.2779 19.0813 29.2779 18.6303V13.0604C29.2779 11.4235 29.8528 9.86975 30.9088 8.62164C29.2993 6.38263 26.7881 4.94263 23.948 4.64683L22.4725 4.49311C21.6097 4.40329 21.4404 3.24714 22.2423 2.92613L22.9133 2.65738C14.1734 -0.30622 4.82707 2.98666 4.82707 14.3881V18.6301C4.82707 19.278 5.21073 19.8412 5.77152 20.124V14.8303C5.77152 11.6786 8.40779 9.11443 11.6481 9.11443H22.3518C25.5921 9.11443 28.2284 11.6784 28.2284 14.83V21.5159C28.2284 28.6173 21.0938 34.0113 13.834 31.9325C13.7867 32.5151 13.6376 33.0773 13.3947 33.5999C14.8069 34.5432 16.5904 34.9237 18.3509 34.5506C18.8039 34.4546 19.2512 34.734 19.3499 35.1746ZM16.9999 30.7422C22.2656 30.7422 26.5494 26.5755 26.5494 21.4539V14.83C26.5494 12.579 24.6663 10.7475 22.3518 10.7475H11.6481C9.33355 10.7475 7.45053 12.5791 7.45053 14.8303V21.4539C7.45053 26.5755 11.7343 30.7422 16.9999 30.7422Z" fill="white"/>
<path d="M12.9816 44.8154H25.5001C25.9637 44.8154 26.3396 45.181 26.3396 45.632C26.3396 46.0829 25.9637 46.4485 25.5001 46.4485H12.9816C12.518 46.4485 12.1421 46.0829 12.1421 45.632C12.1421 45.181 12.518 44.8154 12.9816 44.8154Z" fill="#289678"/>
</svg>
