<svg width="32" height="50" viewBox="0 0 32 50" fill="none" xmlns="http://www.w3.org/2000/svg">
<path d="M23.7648 14.258C23.9541 14.6088 24.3919 14.7397 24.7427 14.5504C25.0934 14.3611 25.2244 13.9233 25.0351 13.5725C22.7925 9.26559 17.3653 6.91889 12.6337 8.3359C6.92253 9.95201 3.59099 15.9132 5.20701 21.6242C6.80464 27.3826 12.9088 30.6516 18.4954 29.0508C23.242 27.7076 26.4626 23.3298 26.3272 18.4049C26.3163 18.0065 25.9866 17.6932 25.5859 17.7033C25.1874 17.7142 24.8733 18.0461 24.8843 18.4445C25.0015 22.7085 22.2126 26.4988 18.1024 27.6619C13.1573 29.0612 7.99532 26.1764 6.59601 21.2312C5.19671 16.2859 8.08154 11.1242 13.0267 9.72481C17.1954 8.5452 21.7111 10.4518 23.7648 14.258Z" fill="white"/>
<path d="M17.7917 23.9937C18.5318 24.7595 19.9926 24.8768 20.8537 23.9937C21.6977 23.1495 21.6977 21.7759 20.8536 20.9316C20.1135 20.1657 18.6525 20.0486 17.7917 20.9316C17.0257 21.6719 16.9084 23.1325 17.7917 23.9937ZM18.8123 21.9523C19.0271 21.747 19.4695 21.6251 19.8329 21.9523C20.1143 22.2336 20.1143 22.6916 19.833 22.9729C19.6181 23.1781 19.1757 23.3002 18.8123 22.9729C18.6071 22.7584 18.485 22.3156 18.8123 21.9523Z" fill="#289678"/>
<path d="M13.3193 16.4596C14.0853 15.7195 14.2024 14.2586 13.3194 13.3975C12.5793 12.6316 11.1183 12.5144 10.2574 13.3975C9.49149 14.1376 9.37418 15.5986 10.2573 16.4596C10.9974 17.2254 12.4583 17.3427 13.3193 16.4596ZM11.2779 15.4388C11.0728 15.224 10.9508 14.7818 11.278 14.4182C11.4929 14.2129 11.9352 14.091 12.2987 14.4182C12.6631 14.7599 12.5337 15.6175 11.7882 15.6503C11.668 15.6465 11.4892 15.6097 11.2779 15.4388Z" fill="#289678"/>
<path d="M10.9564 23.9673C11.141 23.9673 11.3258 23.8968 11.4668 23.7558L20.6088 14.6139C20.8906 14.332 20.8906 13.875 20.6088 13.5932C20.3268 13.3114 19.8699 13.3114 19.588 13.5932L10.446 22.7352C10.1036 23.0669 10.2232 23.9577 10.9564 23.9673Z" fill="#289678"/>
<path d="M26.3175 6.0339C26.3175 5.63531 25.9945 5.31217 25.5958 5.31217C25.1971 5.31217 24.8741 5.63531 24.8741 6.0339V8.81711C23.833 7.83353 22.6706 7.04655 21.4357 6.4554V1.69271C21.4357 0.759362 20.6763 0 19.7431 0H11.6942C10.7609 0 10.0015 0.759362 10.0015 1.69271V6.31134C8.65531 6.91452 7.38659 7.74846 6.25491 8.8148V6.0339C6.25491 5.63531 5.93186 5.31217 5.53318 5.31217C5.13449 5.31217 4.81144 5.63531 4.81144 6.0339V10.4074C2.53865 13.3554 1.55718 17.1382 2.16306 20.8753C2.22686 21.2687 2.59725 21.536 2.99103 21.4722C3.38452 21.4084 3.65176 21.0377 3.58796 20.6442C2.94763 16.694 4.29102 12.6865 7.18152 9.92425C12.0168 5.3038 19.7075 5.47547 24.3254 10.3066C26.5625 12.6467 27.7537 15.7184 27.6795 18.9558C27.6053 22.1933 26.2744 25.2089 23.9323 27.4471C19.0973 32.0676 11.4064 31.8959 6.78832 27.0648C6.03541 26.2771 5.39364 25.3966 4.88102 24.4476C4.69163 24.0969 4.25359 23.9662 3.90302 24.1556C3.55225 24.3451 3.42157 24.783 3.61105 25.1337C4.18497 26.1961 4.90296 27.1814 5.74498 28.0623C6.99435 29.3693 8.44447 30.3714 10.0017 31.0668V34.899C10.0017 35.0364 9.88986 35.1481 9.75244 35.1481H5.37949C4.68894 35.1481 4.09211 35.5429 3.8218 36.1784C3.55148 36.8138 3.68111 37.5176 4.16015 38.015L14.4994 48.7521C14.8215 49.0865 15.2545 49.2706 15.7187 49.2706C16.183 49.2706 16.616 49.0864 16.938 48.752L21.234 44.2908C21.5105 44.0037 21.5018 43.5468 21.2148 43.2704C20.9276 42.9937 20.4707 43.0025 20.1943 43.2896L15.8984 47.7508C15.8344 47.8172 15.7584 47.8271 15.7188 47.8271C15.6792 47.8271 15.6033 47.8172 15.5393 47.7508L5.19973 37.0137C5.10033 36.9104 5.12583 36.8 5.14998 36.7433C5.17404 36.6867 5.23592 36.5916 5.3793 36.5916H9.75225C10.6856 36.5916 11.445 35.8323 11.445 34.899V31.6138C12.7779 32.0344 14.1643 32.2462 15.552 32.2461C17.0532 32.246 18.5555 31.9984 19.9922 31.5031V34.8989C19.9922 35.8323 20.7516 36.5915 21.685 36.5915H26.058C26.2014 36.5915 26.2633 36.6866 26.2873 36.7432C26.3115 36.7999 26.3371 36.9102 26.2375 37.0136L22.5145 40.8798C22.238 41.1668 22.2467 41.6238 22.5337 41.9002C22.6737 42.035 22.8541 42.1021 23.0342 42.1021C23.2235 42.1021 23.4126 42.0281 23.5541 41.881L27.2772 38.0148C27.7562 37.5174 27.8858 36.8136 27.6156 36.1782C27.3454 35.5428 26.7485 35.148 26.0579 35.148H21.6849C21.5474 35.148 21.4356 35.0361 21.4356 34.8988V30.9105C22.6895 30.3084 23.8707 29.5023 24.9295 28.4907C27.5503 25.9861 29.0394 22.6117 29.1225 18.9889C29.1944 15.855 28.2058 12.8603 26.3175 10.4135V6.0339ZM11.445 5.76118V1.69271C11.445 1.55529 11.5568 1.44347 11.6942 1.44347H19.7431C19.8805 1.44347 19.9922 1.55529 19.9922 1.69271V5.86377C17.2358 4.91714 14.2281 4.87961 11.445 5.76118Z" fill="white"/>
<path d="M30.4074 0C30.0088 0 29.6857 0.323145 29.6857 0.721736V12.0414C29.6857 12.44 30.0088 12.7632 30.4074 12.7632C30.8061 12.7632 31.1292 12.44 31.1292 12.0414V0.721736C31.1292 0.323145 30.8061 0 30.4074 0Z" fill="white"/>
<path d="M0.721736 0C0.323049 0 0 0.323145 0 0.721736V12.0414C0 12.44 0.323049 12.7632 0.721736 12.7632C1.12042 12.7632 1.44347 12.44 1.44347 12.0414V0.721736C1.44347 0.323145 1.12033 0 0.721736 0Z" fill="white"/>
</svg>
