<svg width="14" height="14" viewBox="0 0 14 14" fill="none" xmlns="http://www.w3.org/2000/svg">
<path d="M6.99994 9.91677C6.75844 9.91677 6.56244 9.72077 6.56244 9.47927V0.437503C6.56244 0.196001 6.75844 0 6.99994 0C7.24144 0 7.43745 0.196001 7.43745 0.437503V9.47927C7.43745 9.72077 7.24144 9.91677 6.99994 9.91677Z" fill="#289678"/>
<path d="M6.99993 9.91686C6.88788 9.91686 6.77594 9.87424 6.69071 9.78847L4.35739 7.45516C4.18649 7.28426 4.18649 7.00719 4.35739 6.83618C4.52829 6.66528 4.80536 6.66528 4.97637 6.83618L7.00046 8.86038L9.02466 6.83618C9.19556 6.66528 9.47274 6.66528 9.64364 6.83618C9.81454 7.00719 9.81454 7.28426 9.64364 7.45516L7.31022 9.78847C7.22391 9.87424 7.11197 9.91686 6.99993 9.91686Z" fill="#289678"/>
<path d="M12.3958 14.0002H1.60412C0.719182 14.0002 -9.15527e-05 13.281 -9.15527e-05 12.396V9.771C-9.15527e-05 9.5295 0.195909 9.3335 0.437412 9.3335C0.678914 9.3335 0.874915 9.5295 0.874915 9.771V12.396C0.874915 12.798 1.20219 13.1252 1.60412 13.1252H12.3958C12.7977 13.1252 13.125 12.798 13.125 12.396V9.771C13.125 9.5295 13.321 9.3335 13.5625 9.3335C13.804 9.3335 14 9.5295 14 9.771V12.396C14 13.281 13.2807 14.0002 12.3958 14.0002Z" fill="#289678"/>
</svg>
