<svg width="50" height="49" viewBox="0 0 50 49" fill="none" xmlns="http://www.w3.org/2000/svg">
<path d="M48.865 5.97857C48.8357 5.95105 43.0483 0.431694 43.0483 0.431694C42.8271 0.219408 42.5982 0 42.1709 0H18.8714C18.1908 0 17.6371 0.553619 17.6371 1.23417V5.02405L9.42522 6.43172C8.76699 6.5472 8.32433 7.17713 8.43836 7.83468L8.85514 10.2647C6.18597 11.1629 3.44559 12.0889 0.80009 13.0392C0.174971 13.2677 -0.153082 13.9628 0.0699823 14.5917L5.3324 29.2204C5.43825 29.5148 5.71569 29.6981 6.0116 29.6981C6.09263 29.6981 6.17519 29.6843 6.25584 29.6553C6.63095 29.5203 6.82562 29.1069 6.6907 28.7318L1.50614 14.3194C3.99853 13.4271 6.57965 12.5537 9.10217 11.7046L11.5821 26.1629L14.4358 42.814C14.5389 43.4018 15.0555 43.82 15.6387 43.82C15.7047 43.82 15.7717 43.8147 15.8389 43.8036L23.5678 42.4772L29.6073 41.442L20.5239 44.7068L13.3609 47.2823L7.79794 31.8093C7.66312 31.4342 7.24981 31.2395 6.8746 31.3743C6.49949 31.5092 6.30482 31.9226 6.43964 32.2977L12.0815 47.9905C12.2619 48.484 12.7294 48.7908 13.2236 48.7908C13.3601 48.7908 13.4988 48.7673 13.6339 48.7179L21.0121 46.0652L37.7654 40.0436L40.9659 39.495H48.0362C48.7167 39.495 49.2704 38.9401 49.2704 38.2581V6.79182C49.2705 6.35984 49.0361 6.13947 48.865 5.97857ZM46.9528 6.14948H43.3412L43.2517 6.14986C43.0788 6.15102 42.6739 6.154 42.5713 6.05199C42.5476 6.02842 42.5199 5.9497 42.5199 5.80352L42.5115 1.91433L46.9528 6.14948ZM47.827 38.0513H19.0806V23.9855C19.0806 23.5869 18.7575 23.2638 18.3589 23.2638C17.9603 23.2638 17.6371 23.5869 17.6371 23.9855V38.2579C17.6371 38.9399 18.1908 39.4948 18.8714 39.4948H32.4219L23.3237 41.0543L15.8194 42.3422L13.0048 25.9189L9.89954 7.81486L17.637 6.4885V20.6366C17.637 21.0352 17.9602 21.3584 18.3588 21.3584C18.7574 21.3584 19.0805 21.0352 19.0805 20.6366V1.44338H41.067L41.0764 5.80516C41.0764 6.33386 41.2372 6.76151 41.5543 7.07638C42.0415 7.56013 42.7302 7.59381 43.1578 7.59381C43.1946 7.59381 43.2294 7.59353 43.262 7.59333L47.827 7.59305V38.0513Z" fill="white"/>
<path d="M22.5595 11.2066C22.5595 11.6052 22.8827 11.9283 23.2813 11.9283H43.9168C44.3154 11.9283 44.6385 11.6052 44.6385 11.2066C44.6385 10.808 44.3154 10.4849 43.9168 10.4849H23.2813C22.8827 10.4849 22.5595 10.808 22.5595 11.2066Z" fill="#289678"/>
<path d="M43.9168 15.6123H23.2813C22.8827 15.6123 22.5595 15.9354 22.5595 16.334C22.5595 16.7326 22.8827 17.0558 23.2813 17.0558H43.9168C44.3154 17.0558 44.6385 16.7326 44.6385 16.334C44.6385 15.9354 44.3154 15.6123 43.9168 15.6123Z" fill="#289678"/>
<path d="M43.9168 20.7397H23.2813C22.8827 20.7397 22.5595 21.0629 22.5595 21.4615C22.5595 21.8601 22.8827 22.1832 23.2813 22.1832H43.9168C44.3154 22.1832 44.6385 21.8601 44.6385 21.4615C44.6385 21.0629 44.3154 20.7397 43.9168 20.7397Z" fill="#289678"/>
<path d="M43.9168 25.8672H23.2813C22.8827 25.8672 22.5595 26.1903 22.5595 26.5889C22.5595 26.9875 22.8827 27.3107 23.2813 27.3107H43.9168C44.3154 27.3107 44.6385 26.9875 44.6385 26.5889C44.6385 26.1903 44.3154 25.8672 43.9168 25.8672Z" fill="#289678"/>
<path d="M43.9168 30.9946H23.2813C22.8827 30.9946 22.5595 31.3178 22.5595 31.7164C22.5595 32.115 22.8827 32.4381 23.2813 32.4381H43.9168C44.3154 32.4381 44.6385 32.115 44.6385 31.7164C44.6385 31.3178 44.3154 30.9946 43.9168 30.9946Z" fill="#289678"/>
</svg>
