<svg width="61" height="61" viewBox="0 0 61 61" fill="none" xmlns="http://www.w3.org/2000/svg">
<path d="M30.4999 19C26.7235 19 23.6521 22.0714 23.6521 25.8478C23.6521 29.4908 29.8726 37.6497 30.1374 37.9948C30.2242 38.108 30.3574 38.1738 30.4999 38.1738C30.6423 38.1738 30.7756 38.108 30.8623 37.9948C31.1271 37.6497 37.3476 29.4908 37.3476 25.8478C37.3476 22.0714 34.2762 19 30.4999 19ZM30.4999 29.0434C28.7377 29.0434 27.3042 27.61 27.3042 25.8478C27.3042 24.0856 28.7377 22.6521 30.4999 22.6521C32.2621 22.6521 33.6955 24.0856 33.6955 25.8478C33.6955 27.61 32.262 29.0434 30.4999 29.0434Z" fill="#289678"/>
<path d="M40.9231 40.2033L37.271 34.7251C37.1861 34.5982 37.0437 34.5215 36.8912 34.5215H34.4214C33.0984 36.5566 31.874 38.1764 31.5873 38.5498C31.3307 38.8849 30.9235 39.0867 30.4999 39.0867C30.0762 39.0867 29.669 38.8849 29.4116 38.5489C29.1258 38.1755 27.9005 36.5557 26.5784 34.5215H24.1086C23.9561 34.5215 23.8137 34.5982 23.7288 34.7251L20.0767 40.2033C19.9835 40.343 19.9744 40.5238 20.0539 40.6726C20.1333 40.8196 20.2876 40.9128 20.4565 40.9128H40.5433C40.7122 40.9128 40.8665 40.8196 40.9451 40.6717C41.0254 40.5229 41.0172 40.343 40.9231 40.2033Z" fill="#289678"/>
<circle cx="30.5" cy="30.5" r="30.5" fill="#289678" fill-opacity="0.1"/>
</svg>
