<svg width="61" height="61" viewBox="0 0 61 61" fill="none" xmlns="http://www.w3.org/2000/svg">
<path d="M38.2381 39.4432C38.3269 39.5611 38.422 39.6743 38.5228 39.7822C39.1466 40.3879 39.3997 41.0794 38.6901 41.7348C37.9804 42.3903 37.2527 42.0829 36.751 41.4094C35.6571 39.9313 34.2423 39.5019 32.4479 39.6692C30.8331 39.7789 29.2127 39.7789 27.5978 39.6692C27.1909 39.6191 26.7779 39.6762 26.3997 39.8347C26.0215 39.9933 25.6913 40.2478 25.4418 40.5732C25.122 40.9425 24.7777 41.2899 24.4112 41.6128C23.8371 42.1688 23.2043 42.2637 22.6032 41.6761C22.002 41.0885 22.1512 40.528 22.6348 39.9675C22.784 39.8003 22.9377 39.6375 23.1772 39.3754C21.2246 38.4036 20.9669 36.6588 21.0031 34.7242C21.0528 31.3749 21.0031 28.0255 21.0031 24.6761C21.0031 20.4725 23.4665 18 27.6521 18C29.7991 18 31.9416 18 34.0886 18C37.7589 18.0452 40.2631 20.4815 40.3218 24.1563C40.3806 27.9939 40.3535 31.8404 40.3218 35.6689C40.3399 37.4046 39.9105 38.1188 38.2381 39.4432ZM30.554 31.2212C31.7563 31.2212 32.9632 31.2483 34.17 31.2212C35.6797 31.176 36.6018 30.3669 36.6786 28.8798C36.7652 27.2236 36.7652 25.5639 36.6786 23.9077C36.6018 22.4839 35.6752 21.6477 34.2333 21.6477C31.8648 21.616 29.4963 21.607 27.1278 21.6477C25.6994 21.6477 24.7547 22.5155 24.6824 23.9077C24.5965 25.5575 24.5965 27.2164 24.6824 28.8798C24.7502 30.3307 25.7175 31.176 27.2001 31.2167C28.3165 31.2483 29.442 31.2212 30.572 31.2212H30.554ZM25.6497 36.2339H26.1379C26.4452 35.7819 26.9424 35.3706 27.0102 34.8779C27.0422 34.7179 27.034 34.5524 26.9862 34.3964C26.9385 34.2404 26.8527 34.0986 26.7367 33.9839C26.6206 33.8692 26.4779 33.7851 26.3213 33.7392C26.1647 33.6932 25.9992 33.6869 25.8395 33.7208C25.3875 33.8112 24.7547 34.4349 24.7412 34.8327C24.7276 35.2305 25.3242 35.7684 25.6497 36.2339ZM36.873 35.0678V34.5705C36.3803 34.2677 35.8831 33.7072 35.4311 33.7479C35.1737 33.8371 34.9424 33.9886 34.7579 34.1889C34.5733 34.3893 34.4412 34.6322 34.3734 34.896C34.347 35.0572 34.3613 35.2225 34.415 35.3768C34.4687 35.5311 34.5601 35.6696 34.6809 35.7796C34.8017 35.8896 34.9481 35.9677 35.1067 36.0068C35.2653 36.0459 35.4312 36.0447 35.5893 36.0034C36.0549 35.9175 36.4481 35.3932 36.873 35.0632V35.0678Z" fill="#289678"/>
<circle cx="30.5" cy="30.5" r="30.5" fill="#289678" fill-opacity="0.1"/>
</svg>
