<svg width="25" height="30" viewBox="0 0 25 30" fill="none" xmlns="http://www.w3.org/2000/svg">
<path d="M16.7392 2.72632C16.4215 2.72632 16.1637 2.98414 16.1637 3.30181C16.1637 3.61948 16.4215 3.8773 16.7392 3.8773C17.0569 3.8773 17.3147 3.61948 17.3147 3.30181C17.3147 2.98414 17.0569 2.72632 16.7392 2.72632Z" fill="#289678"/>
<path d="M7.53156 2.72632C7.21389 2.72632 6.95607 2.98414 6.95607 3.30181C6.95607 3.61948 7.21389 3.8773 7.53156 3.8773C7.84923 3.8773 8.10705 3.61948 8.10705 3.30181C8.10705 2.98414 7.84923 2.72632 7.53156 2.72632Z" fill="#289678"/>
<path d="M24.1046 28.916L20.2965 24.9376C21.8349 24.8824 23.0697 23.6145 23.0697 22.0628V4.98623C23.0697 4.05641 22.7447 3.1484 22.1545 2.42944C21.5639 1.71065 20.7365 1.21533 19.8249 1.03503C17.7824 0.629767 15.6912 0.424316 13.6093 0.424316H10.569C8.58889 0.424316 6.52638 0.613998 4.43931 1.03111C2.56292 1.40651 1.20108 3.068 1.20108 4.98163V22.0628C1.20108 23.6275 2.4568 24.9037 4.01333 24.9385L0.162209 28.9135C0.00135933 29.0795 -0.0445646 29.3256 0.0456147 29.5383C0.135679 29.7511 0.344409 29.8894 0.575526 29.8894H4.69028C4.87478 29.8894 5.04807 29.801 5.15631 29.6516L6.90201 27.2422H17.42L19.1657 29.6516C19.274 29.801 19.4473 29.8894 19.6317 29.8894H23.6889C23.9194 29.8894 24.1276 29.7519 24.2182 29.54C24.3087 29.328 24.264 29.0825 24.1046 28.916ZM2.35207 22.0628V4.98163C2.35207 3.61466 3.32482 2.42789 4.66496 2.15971C6.54353 1.78426 8.52857 1.5753 10.5689 1.5753H13.6092C15.6161 1.5753 17.632 1.77332 19.6011 2.16397C20.2522 2.29282 20.8433 2.64663 21.265 3.15991C21.6865 3.67342 21.9187 4.322 21.9187 4.98617V22.0628C21.9187 23.0147 21.1442 23.7892 20.1922 23.7892H4.07848C3.12656 23.7892 2.35207 23.0147 2.35207 22.0628ZM4.39661 28.7384H1.93437L5.61423 24.9402H7.1486L4.39661 28.7384ZM7.73595 26.0912L8.56989 24.9402H15.7522L16.5861 26.0912H7.73595ZM19.9254 28.7384L17.1735 24.9402H18.7058L22.3414 28.7384H19.9254Z" fill="#289678"/>
<path d="M20.1923 5.02832H4.07854C3.76076 5.02832 3.50305 5.28602 3.50305 5.60381V15.157C3.50305 15.4747 3.76076 15.7324 4.07854 15.7324H20.1923C20.5101 15.7324 20.7678 15.4747 20.7678 15.157V5.60381C20.7678 5.28602 20.5101 5.02832 20.1923 5.02832ZM11.5599 14.5815H4.65403V6.1793H11.5599V14.5815ZM19.6168 14.5815H12.7109V6.1793H19.6168V14.5815Z" fill="#289678"/>
<path d="M14.4371 2.72632H9.83315C9.51536 2.72632 9.25766 2.98402 9.25766 3.30181C9.25766 3.61959 9.51536 3.8773 9.83315 3.8773H14.4371C14.7549 3.8773 15.0126 3.61959 15.0126 3.30181C15.0126 2.98402 14.7549 2.72632 14.4371 2.72632Z" fill="#289678"/>
<path d="M18.4657 17.459C17.1964 17.459 16.1637 18.4916 16.1637 19.7609C16.1637 21.0302 17.1964 22.0629 18.4657 22.0629C19.735 22.0629 20.7676 21.0302 20.7676 19.7609C20.7676 18.4916 19.735 17.459 18.4657 17.459ZM18.4657 20.9119C17.831 20.9119 17.3147 20.3956 17.3147 19.7609C17.3147 19.1263 17.831 18.61 18.4657 18.61C19.1003 18.61 19.6166 19.1263 19.6166 19.7609C19.6166 20.3956 19.1003 20.9119 18.4657 20.9119Z" fill="#289678"/>
<path d="M5.80501 17.459C4.53571 17.459 3.50305 18.4916 3.50305 19.7609C3.50305 21.0302 4.53577 22.0629 5.80501 22.0629C7.07431 22.0629 8.10697 21.0302 8.10697 19.7609C8.10697 18.4916 7.07431 17.459 5.80501 17.459ZM5.80501 20.9119C5.17036 20.9119 4.65403 20.3956 4.65403 19.7609C4.65403 19.1263 5.17036 18.61 5.80501 18.61C6.43966 18.61 6.95599 19.1263 6.95599 19.7609C6.95599 20.3956 6.43966 20.9119 5.80501 20.9119Z" fill="#289678"/>
<path d="M14.4371 18.0344H9.83315C9.51536 18.0344 9.25766 18.2921 9.25766 18.6099C9.25766 18.9277 9.51536 19.1854 9.83315 19.1854H14.4371C14.7549 19.1854 15.0126 18.9277 15.0126 18.6099C15.0126 18.2921 14.7549 18.0344 14.4371 18.0344Z" fill="#289678"/>
<path d="M14.4371 20.3362H9.83315C9.51536 20.3362 9.25766 20.5939 9.25766 20.9117C9.25766 21.2295 9.51536 21.4872 9.83315 21.4872H14.4371C14.7549 21.4872 15.0126 21.2295 15.0126 20.9117C15.0126 20.5939 14.7549 20.3362 14.4371 20.3362Z" fill="#289678"/>
</svg>
