<svg width="61" height="61" viewBox="0 0 61 61" fill="none" xmlns="http://www.w3.org/2000/svg">
<path d="M23.9554 29.8524L30.4615 25.1823C30.6089 25.0887 30.7972 25.0887 30.9446 25.1823L37.4829 29.8524V24.2804C37.5186 23.5163 36.9282 22.868 36.1642 22.8322C36.1529 22.8317 36.1415 22.8313 36.1301 22.8311H25.3082C24.5435 22.848 23.9373 23.4816 23.9543 24.2464C23.9545 24.2577 23.9549 24.2691 23.9554 24.2804V29.8524Z" fill="#289678"/>
<path d="M32.3295 18H29.1087V21.865H32.3295V18Z" fill="#289678"/>
<path d="M44.9551 38.5487C44.0029 38.5393 43.0743 38.8451 42.314 39.4183C41.7121 39.9031 40.9611 40.1648 40.1882 40.1591C39.6523 40.164 39.1227 40.0427 38.6422 39.8048L40.6391 33.2022L37.837 31.2375L37.6438 31.1409L31.0411 26.5352V40.1269H30.6868L30.0749 40.0948V26.5352L20.7024 33.2022L22.7637 39.7726C22.2953 40.045 21.7592 40.179 21.2177 40.1591C20.1871 40.1591 19.704 39.8048 19.1242 39.4505C18.3755 38.852 17.4416 38.5331 16.4831 38.5487C16.2163 38.5487 16 38.765 16 39.0318C16 39.2986 16.2163 39.515 16.4831 39.515C17.2568 39.5039 18.0097 39.7662 18.6089 40.2557C19.3593 40.8244 20.2762 41.1301 21.2177 41.1253C22.1762 41.1409 23.11 40.822 23.8588 40.2235C24.4385 39.8692 24.9217 39.5149 25.9523 39.5149C26.726 39.5038 27.4788 39.7661 28.0781 40.2557C28.8284 40.8244 29.7453 41.13 30.6869 41.1253C31.6453 41.1409 32.5792 40.822 33.328 40.2234C33.9077 39.8691 34.3908 39.5148 35.4215 39.5148C36.1943 39.5092 36.9453 39.7709 37.5472 40.2556C39.117 41.4153 41.2596 41.4153 42.8294 40.2556C43.4313 39.7709 44.1823 39.5091 44.9551 39.5148C45.222 39.5148 45.4383 39.2985 45.4383 39.0317C45.4383 38.7649 45.2219 38.5487 44.9551 38.5487Z" fill="#289678"/>
<circle cx="30.5" cy="30.5" r="30.5" fill="#289678" fill-opacity="0.1"/>
</svg>
