<svg width="61" height="61" viewBox="0 0 61 61" fill="none" xmlns="http://www.w3.org/2000/svg">
<path d="M35.7298 29.0527C35.657 29.9941 35.617 30.9391 35.5042 31.8731C35.4059 32.6863 34.9547 33.0855 34.0778 33.0379C33.0226 32.983 31.9602 33.0379 30.8977 33.0379C30.17 33.0379 29.646 33.2943 29.5587 34.0891C29.4786 34.8217 29.9226 35.2393 30.7667 35.3894C31.0461 35.4756 31.3128 35.5988 31.5599 35.7557C31.3214 35.9433 31.0549 36.0916 30.7703 36.1953C27.8122 36.73 24.7194 34.5763 24.3118 31.5508C24.0862 29.8109 24.1808 28.0235 24.1881 26.258C24.2271 26.1185 24.3007 25.9912 24.4019 25.888C24.503 25.7849 24.6286 25.7093 24.7667 25.6683C25.7927 25.5547 26.3676 25.0346 26.5132 24.0127C26.5932 23.4486 26.8552 23.2471 27.3719 23.5951C29.6169 25.1209 32.2346 25.9976 34.9402 26.1298C35.4823 26.1554 35.6679 26.4265 35.6679 26.9503C35.6461 27.6499 35.6679 28.3531 35.6679 29.0527H35.7298Z" fill="#289678"/>
<path d="M22.4595 25.6059C22.3972 24.6639 22.4081 23.7185 22.4923 22.7782C22.5832 22.2141 23.0053 21.6794 23.3801 21.1922C23.7549 20.7051 24.2424 20.4926 24.5808 20.0641C25.0202 19.458 25.591 18.9606 26.2498 18.6096C26.9086 18.2587 27.6382 18.0634 28.3832 18.0385C29.8386 17.9909 31.2941 17.9836 32.7495 18.0385C33.987 18.0949 35.157 18.6227 36.0225 19.515C36.8879 20.4073 37.3841 21.5974 37.4105 22.8442C37.4324 23.8514 37.436 24.8551 37.4105 25.8623C37.3523 26.105 37.2499 26.3348 37.1085 26.54C36.8648 26.4154 36.621 26.2982 36.3808 26.1737C35.9114 25.91 35.4639 25.4411 34.98 25.4008C32.5246 25.222 30.1505 24.4383 28.0666 23.1189C26.7167 22.2618 26.1636 22.4705 25.7634 24.0126C25.726 24.2535 25.6019 24.4722 25.4147 24.6269C25.2275 24.7816 24.9902 24.8615 24.7482 24.8514C23.7658 24.9137 23.431 25.3166 23.4165 26.3165C23.4165 27.1407 23.4419 27.9648 23.3983 28.7853C23.3315 29.0471 23.2194 29.2951 23.0672 29.5178C22.8743 29.2834 22.5396 29.06 22.5177 28.8073C22.4377 27.9282 22.4668 27.0418 22.4559 26.159C22.4559 25.9759 22.4559 25.7927 22.4559 25.6096L22.4595 25.6059Z" fill="#289678"/>
<path d="M29.8606 41.4623C27.1935 41.4623 24.5228 41.4623 21.8557 41.4623C20.9606 41.4623 20.8077 41.2205 21.2116 40.4294C21.5691 39.6967 22.1102 39.0705 22.7814 38.6125C23.4527 38.1545 24.2309 37.8806 25.0394 37.8178C25.3642 37.7502 25.6941 37.711 26.0255 37.7006C26.3283 37.6909 26.6264 37.7781 26.8769 37.9496C29.0601 40.0155 30.9522 40.0301 33.0626 37.9496C33.1879 37.7948 33.3545 37.6792 33.5428 37.6163C35.4386 37.3929 37.72 38.5906 38.6151 40.2499C39.1245 41.1912 38.9789 41.4367 37.9528 41.4403C35.253 41.4403 32.5568 41.4403 29.8569 41.4403L29.8606 41.4623Z" fill="#289678"/>
<path d="M32.7897 34.5579C32.1566 34.5579 31.5198 34.5836 30.8867 34.5579C30.6938 34.5579 30.5228 34.3418 30.3336 34.2283C30.5228 34.0854 30.6975 33.829 30.9049 33.8217C32.0219 33.7814 33.1426 33.8217 34.2597 33.7924C35.7151 33.7924 36.2718 33.232 36.3264 31.7925C36.3737 30.5764 36.461 29.364 36.4574 28.1479C36.4574 27.4667 36.7485 27.2689 37.3379 27.3861C37.5997 27.4258 37.8488 27.5261 38.0657 27.6791C39.1572 28.5838 38.6806 29.8365 38.6296 30.9317C38.6078 31.3932 37.982 31.8364 37.6072 32.265C37.4653 32.4298 37.1524 32.4957 37.0905 32.6679C36.5811 34.133 35.4932 34.6348 34.0486 34.5799C33.6266 34.5799 33.2008 34.5799 32.7788 34.5799L32.7897 34.5579Z" fill="#289678"/>
<path d="M29.9115 38.7151C28.7944 38.6528 27.9612 38.0485 27.2771 37.1914C27.2394 37.1179 27.2169 37.0374 27.2113 36.9549C27.2057 36.8723 27.2169 36.7895 27.2444 36.7115C27.2444 36.6529 27.5173 36.609 27.6337 36.6493C29.1234 37.1833 30.7505 37.1833 32.2402 36.6493C32.318 36.629 32.3996 36.6285 32.4777 36.6476C32.5558 36.6668 32.6279 36.7051 32.6877 36.7592C32.7127 36.839 32.7187 36.9237 32.7055 37.0063C32.6922 37.089 32.66 37.1674 32.6113 37.2353C32.3046 37.6743 31.9015 38.0362 31.4332 38.2928C30.965 38.5495 30.4442 38.694 29.9115 38.7151Z" fill="#289678"/>
<circle cx="30.5" cy="30.5" r="30.5" fill="#289678" fill-opacity="0.1"/>
</svg>
