<svg width="61" height="61" viewBox="0 0 61 61" fill="none" xmlns="http://www.w3.org/2000/svg">
<path d="M25.6894 19.7601H26.5207C26.5071 19.8919 26.5 20.0257 26.5 20.1612C26.5 22.3024 28.2357 24.038 30.3768 24.038C32.518 24.038 34.2534 22.3024 34.2534 20.1612C34.2534 19.8729 34.2209 19.5924 34.1613 19.3221L35.3661 16.1599C35.4039 16.0606 35.3905 15.9491 35.3301 15.8614C35.2698 15.7739 35.1705 15.7217 35.0641 15.7217H25.9538C25.8475 15.7217 25.748 15.7739 25.6877 15.8614C25.6274 15.949 25.614 16.0605 25.6518 16.1599L26.5387 18.4877L25.511 19.1676C25.3921 19.2463 25.3389 19.3935 25.3799 19.5301C25.4211 19.6666 25.5468 19.7601 25.6894 19.7601Z" fill="#289678"/>
<path d="M26.0761 24.4407C25.7076 24.4407 25.3557 24.5944 25.1053 24.8649C24.8548 25.1353 24.7286 25.4979 24.7568 25.8654L25.3671 33.799C25.3878 34.0673 25.4905 34.3202 25.6574 34.5271L32.9533 24.4407H26.0761Z" fill="#289678"/>
<path d="M35.6479 24.8651C35.5056 24.7113 35.3297 24.5969 35.1373 24.5254L27.0054 35.7676L27.1923 35.9363V43.9591C27.1923 44.69 27.7847 45.2824 28.5155 45.2824H29.0946C29.7117 45.2824 30.2301 44.86 30.3765 44.2887C30.523 44.8601 31.0413 45.2824 31.6584 45.2824H32.2375C32.9684 45.2824 33.5608 44.69 33.5608 43.9591V35.9362L34.953 34.6804C35.205 34.4531 35.36 34.1377 35.386 33.7992L35.9964 25.8656C36.0248 25.4982 35.8985 25.1355 35.6479 24.8651ZM31.4827 34.5248H29.2704V33.5537H31.4827V34.5248Z" fill="#289678"/>
<circle cx="30.5" cy="30.5" r="30.5" fill="#289678" fill-opacity="0.1"/>
</svg>
