<svg width="27" height="34" viewBox="0 0 27 34" fill="none" xmlns="http://www.w3.org/2000/svg">
<path d="M4.5952 32.0652C4.86156 32.0652 5.0773 31.8495 5.0773 31.5831V25.413C5.0773 25.1469 4.86156 24.9309 4.5952 24.9309C4.32884 24.9309 4.1131 25.1469 4.1131 25.413V31.5831C4.1131 31.8495 4.32884 32.0652 4.5952 32.0652Z" fill="#289678"/>
<path d="M6.65175 32.0652C6.91811 32.0652 7.13385 31.8495 7.13385 31.5831V25.413C7.13385 25.1469 6.91811 24.9309 6.65175 24.9309C6.38539 24.9309 6.16965 25.1469 6.16965 25.413V31.5831C6.16965 31.8495 6.38539 32.0652 6.65175 32.0652Z" fill="#289678"/>
<path d="M8.70827 32.0652C8.97463 32.0652 9.19037 31.8495 9.19037 31.5831V25.413C9.19037 25.1469 8.97463 24.9309 8.70827 24.9309C8.44191 24.9309 8.22617 25.1469 8.22617 25.413V31.5831C8.22617 31.8495 8.44191 32.0652 8.70827 32.0652Z" fill="#289678"/>
<path d="M10.7661 32.0652C11.0325 32.0652 11.2482 31.8495 11.2482 31.5831V25.413C11.2482 25.1469 11.0325 24.9309 10.7661 24.9309C10.4997 24.9309 10.284 25.1469 10.284 25.413V31.5831C10.284 31.8495 10.4997 32.0652 10.7661 32.0652Z" fill="#289678"/>
<path d="M12.8226 32.0652C13.089 32.0652 13.3048 31.8495 13.3048 31.5831V25.413C13.3048 25.1469 13.089 24.9309 12.8226 24.9309C12.5563 24.9309 12.3405 25.1469 12.3405 25.413V31.5831C12.3405 31.8495 12.5563 32.0652 12.8226 32.0652Z" fill="#289678"/>
<path d="M14.8792 32.0652C15.1456 32.0652 15.3613 31.8495 15.3613 31.5831V25.413C15.3613 25.1469 15.1456 24.9309 14.8792 24.9309C14.6128 24.9309 14.3971 25.1469 14.3971 25.413V31.5831C14.3971 31.8495 14.6128 32.0652 14.8792 32.0652Z" fill="#289678"/>
<path d="M16.9357 32.0652C17.2021 32.0652 17.4178 31.8495 17.4178 31.5831V25.413C17.4178 25.1469 17.2021 24.9309 16.9357 24.9309C16.6694 24.9309 16.4536 25.1469 16.4536 25.413V31.5831C16.4536 31.8495 16.6694 32.0652 16.9357 32.0652Z" fill="#289678"/>
<path d="M18.9923 32.0652C19.2587 32.0652 19.4744 31.8495 19.4744 31.5831V25.413C19.4744 25.1469 19.2587 24.9309 18.9923 24.9309C18.7259 24.9309 18.5102 25.1469 18.5102 25.413V31.5831C18.5102 31.8495 18.7259 32.0652 18.9923 32.0652Z" fill="#289678"/>
<path d="M21.0488 25.8951H21.0809V26.4414C21.0809 26.7077 21.2966 26.9235 21.563 26.9235C21.8294 26.9235 22.0451 26.7077 22.0451 26.4414V25.413C22.0451 25.1469 21.8294 24.9309 21.563 24.9309H21.0488C20.7825 24.9309 20.5667 25.1469 20.5667 25.413C20.5667 25.6794 20.7825 25.8951 21.0488 25.8951Z" fill="#289678"/>
<path d="M2.53836 24.9309H2.02419C1.75783 24.9309 1.54208 25.1469 1.54208 25.413V26.4414C1.54208 26.7077 1.75783 26.9235 2.02419 26.9235C2.2903 26.9235 2.50629 26.7077 2.50629 26.4414V25.8951H2.53836C2.80447 25.8951 3.02047 25.6794 3.02047 25.413C3.02047 25.1469 2.80447 24.9309 2.53836 24.9309Z" fill="#289678"/>
<path d="M21.0488 32.0653H21.563C21.8294 32.0653 22.0451 31.8496 22.0451 31.5832V30.5549C22.0451 30.2887 21.8294 30.0728 21.563 30.0728C21.2966 30.0728 21.0809 30.2887 21.0809 30.5549V31.1011H21.0488C20.7825 31.1011 20.5667 31.3171 20.5667 31.5832C20.5667 31.8496 20.7825 32.0653 21.0488 32.0653Z" fill="#289678"/>
<path d="M2.53836 31.1011H2.50629V30.5549C2.50629 30.2887 2.2903 30.0728 2.02419 30.0728C1.75783 30.0728 1.54208 30.2887 1.54208 30.5549V31.5832C1.54208 31.8496 1.75783 32.0653 2.02419 32.0653H2.53836C2.80447 32.0653 3.02047 31.8496 3.02047 31.5832C3.02047 31.3171 2.80447 31.1011 2.53836 31.1011Z" fill="#289678"/>
<path d="M26.1909 14.1332H23.588V9.07717C23.588 8.81106 23.3722 8.59531 23.1059 8.59531C22.8395 8.59531 22.6238 8.81106 22.6238 9.07717V14.1332H0.964206V5.84226H22.6238V6.78467C22.6238 7.05103 22.8395 7.26677 23.1059 7.26677C23.3722 7.26677 23.588 7.05103 23.588 6.78467V5.36016C23.588 5.0938 23.3722 4.87806 23.1059 4.87806H20.5909L13.0551 3.105C13.2125 2.86671 13.3044 2.58156 13.3044 2.2751C13.3044 1.4422 12.6269 0.764648 11.794 0.764648C10.9611 0.764648 10.2835 1.4422 10.2835 2.2751C10.2835 2.58156 10.3755 2.86671 10.5328 3.105L2.99686 4.87806H0.482103C0.215744 4.87806 0 5.0938 0 5.36016V14.6153C0 14.8814 0.215744 15.0974 0.482103 15.0974H3.08506V23.3884H0.482103C0.215744 23.3884 0 23.6044 0 23.8705V33.1257C0 33.392 0.215744 33.6078 0.482103 33.6078H23.1059C23.3722 33.6078 23.588 33.392 23.588 33.1257V24.3526H26.1909C26.4573 24.3526 26.673 24.1369 26.673 23.8705V14.6153C26.673 14.3492 26.4573 14.1332 26.1909 14.1332ZM11.794 1.72885C12.0952 1.72885 12.3402 1.97391 12.3402 2.2751C12.3402 2.57629 12.0952 2.82135 11.794 2.82135C11.4928 2.82135 11.2477 2.57629 11.2477 2.2751C11.2477 1.97391 11.4928 1.72885 11.794 1.72885ZM11.794 3.79859L16.3817 4.87806H7.20624L11.794 3.79859ZM22.6238 32.6436H0.964206V24.3526H22.6238V32.6436ZM25.7088 23.3884H4.04926V15.0974H25.7088V23.3884Z" fill="#289678"/>
<path d="M7.68065 15.6758C7.41429 15.6758 7.19855 15.8918 7.19855 16.1579V22.328C7.19855 22.5944 7.41429 22.8101 7.68065 22.8101C7.94701 22.8101 8.16275 22.5944 8.16275 22.328V16.1579C8.16275 15.8918 7.94701 15.6758 7.68065 15.6758Z" fill="#289678"/>
<path d="M9.7372 15.6758C9.47084 15.6758 9.2551 15.8918 9.2551 16.1579V22.328C9.2551 22.5944 9.47084 22.8101 9.7372 22.8101C10.0036 22.8101 10.2193 22.5944 10.2193 22.328V16.1579C10.2193 15.8918 10.0036 15.6758 9.7372 15.6758Z" fill="#289678"/>
<path d="M11.7937 15.6758C11.5274 15.6758 11.3116 15.8918 11.3116 16.1579V22.328C11.3116 22.5944 11.5274 22.8101 11.7937 22.8101C12.0601 22.8101 12.2759 22.5944 12.2759 22.328V16.1579C12.2759 15.8918 12.0601 15.6758 11.7937 15.6758Z" fill="#289678"/>
<path d="M13.8503 15.6758C13.5839 15.6758 13.3682 15.8918 13.3682 16.1579V22.328C13.3682 22.5944 13.5839 22.8101 13.8503 22.8101C14.1167 22.8101 14.3324 22.5944 14.3324 22.328V16.1579C14.3324 15.8918 14.1167 15.6758 13.8503 15.6758Z" fill="#289678"/>
<path d="M15.9068 15.6758C15.6405 15.6758 15.4247 15.8918 15.4247 16.1579V22.328C15.4247 22.5944 15.6405 22.8101 15.9068 22.8101C16.1732 22.8101 16.3889 22.5944 16.3889 22.328V16.1579C16.3889 15.8918 16.1732 15.6758 15.9068 15.6758Z" fill="#289678"/>
<path d="M17.9646 15.6758C17.6983 15.6758 17.4825 15.8918 17.4825 16.1579V22.328C17.4825 22.5944 17.6983 22.8101 17.9646 22.8101C18.231 22.8101 18.4467 22.5944 18.4467 22.328V16.1579C18.4467 15.8918 18.231 15.6758 17.9646 15.6758Z" fill="#289678"/>
<path d="M20.0212 15.6758C19.7549 15.6758 19.5391 15.8918 19.5391 16.1579V22.328C19.5391 22.5944 19.7549 22.8101 20.0212 22.8101C20.2876 22.8101 20.5033 22.5944 20.5033 22.328V16.1579C20.5033 15.8918 20.2876 15.6758 20.0212 15.6758Z" fill="#289678"/>
<path d="M22.0777 15.6758C21.8114 15.6758 21.5956 15.8918 21.5956 16.1579V22.328C21.5956 22.5944 21.8114 22.8101 22.0777 22.8101C22.3441 22.8101 22.5598 22.5944 22.5598 22.328V16.1579C22.5598 15.8918 22.3441 15.6758 22.0777 15.6758Z" fill="#289678"/>
<path d="M24.1343 16.64H24.1664V17.1862C24.1664 17.4523 24.3821 17.6683 24.6485 17.6683C24.9149 17.6683 25.1306 17.4523 25.1306 17.1862V16.1579C25.1306 15.8918 24.9149 15.6758 24.6485 15.6758H24.1343C23.868 15.6758 23.6522 15.8918 23.6522 16.1579C23.6522 16.424 23.868 16.64 24.1343 16.64Z" fill="#289678"/>
<path d="M5.62381 15.6758H5.10964C4.84328 15.6758 4.62753 15.8918 4.62753 16.1579V17.1862C4.62753 17.4523 4.84328 17.6683 5.10964 17.6683C5.376 17.6683 5.59174 17.4523 5.59174 17.1862V16.64H5.62381C5.89017 16.64 6.10592 16.424 6.10592 16.1579C6.10592 15.8918 5.89017 15.6758 5.62381 15.6758Z" fill="#289678"/>
<path d="M24.1343 22.8102H24.6485C24.9149 22.8102 25.1306 22.5944 25.1306 22.3281V21.2997C25.1306 21.0336 24.9149 20.8176 24.6485 20.8176C24.3821 20.8176 24.1664 21.0336 24.1664 21.2997V21.846H24.1343C23.868 21.846 23.6522 22.062 23.6522 22.3281C23.6522 22.5944 23.868 22.8102 24.1343 22.8102Z" fill="#289678"/>
<path d="M5.62381 21.846H5.59174V21.2997C5.59174 21.0336 5.376 20.8176 5.10964 20.8176C4.84328 20.8176 4.62753 21.0336 4.62753 21.2997V22.3281C4.62753 22.5944 4.84328 22.8102 5.10964 22.8102H5.62381C5.89017 22.8102 6.10592 22.5944 6.10592 22.3281C6.10592 22.062 5.89017 21.846 5.62381 21.846Z" fill="#289678"/>
<path d="M4.1131 6.90276V13.0729C4.1131 13.339 4.32884 13.555 4.5952 13.555C4.86156 13.555 5.0773 13.339 5.0773 13.0729V6.90276C5.0773 6.6364 4.86156 6.42065 4.5952 6.42065C4.32884 6.42065 4.1131 6.6364 4.1131 6.90276Z" fill="#289678"/>
<path d="M6.16965 6.90276V13.0729C6.16965 13.339 6.38539 13.555 6.65175 13.555C6.91811 13.555 7.13385 13.339 7.13385 13.0729V6.90276C7.13385 6.6364 6.91811 6.42065 6.65175 6.42065C6.38539 6.42065 6.16965 6.6364 6.16965 6.90276Z" fill="#289678"/>
<path d="M8.22617 6.90276V13.0729C8.22617 13.339 8.44191 13.555 8.70827 13.555C8.97463 13.555 9.19037 13.339 9.19037 13.0729V6.90276C9.19037 6.6364 8.97463 6.42065 8.70827 6.42065C8.44191 6.42065 8.22617 6.6364 8.22617 6.90276Z" fill="#289678"/>
<path d="M10.284 6.90276V13.0729C10.284 13.339 10.4997 13.555 10.7661 13.555C11.0325 13.555 11.2482 13.339 11.2482 13.0729V6.90276C11.2482 6.6364 11.0325 6.42065 10.7661 6.42065C10.4997 6.42065 10.284 6.6364 10.284 6.90276Z" fill="#289678"/>
<path d="M12.3405 6.90276V13.0729C12.3405 13.339 12.5563 13.555 12.8226 13.555C13.089 13.555 13.3048 13.339 13.3048 13.0729V6.90276C13.3048 6.6364 13.089 6.42065 12.8226 6.42065C12.5563 6.42065 12.3405 6.6364 12.3405 6.90276Z" fill="#289678"/>
<path d="M14.3971 6.90276V13.0729C14.3971 13.339 14.6128 13.555 14.8792 13.555C15.1456 13.555 15.3613 13.339 15.3613 13.0729V6.90276C15.3613 6.6364 15.1456 6.42065 14.8792 6.42065C14.6128 6.42065 14.3971 6.6364 14.3971 6.90276Z" fill="#289678"/>
<path d="M16.4536 6.90276V13.0729C16.4536 13.339 16.6694 13.555 16.9357 13.555C17.2021 13.555 17.4178 13.339 17.4178 13.0729V6.90276C17.4178 6.6364 17.2021 6.42065 16.9357 6.42065C16.6694 6.42065 16.4536 6.6364 16.4536 6.90276Z" fill="#289678"/>
<path d="M18.5102 6.90276V13.0729C18.5102 13.339 18.7259 13.555 18.9923 13.555C19.2587 13.555 19.4744 13.339 19.4744 13.0729V6.90276C19.4744 6.6364 19.2587 6.42065 18.9923 6.42065C18.7259 6.42065 18.5102 6.6364 18.5102 6.90276Z" fill="#289678"/>
<path d="M22.0451 6.90276C22.0451 6.6364 21.8294 6.42065 21.563 6.42065H21.0488C20.7825 6.42065 20.5667 6.6364 20.5667 6.90276C20.5667 7.16887 20.7825 7.38486 21.0488 7.38486H21.0809V7.93111C21.0809 8.19722 21.2966 8.41321 21.563 8.41321C21.8294 8.41321 22.0451 8.19722 22.0451 7.93111V6.90276Z" fill="#289678"/>
<path d="M2.53836 6.42065H2.02419C1.75783 6.42065 1.54208 6.6364 1.54208 6.90276V7.93111C1.54208 8.19722 1.75783 8.41321 2.02419 8.41321C2.2903 8.41321 2.50629 8.19722 2.50629 7.93111V7.38486H2.53836C2.80447 7.38486 3.02047 7.16887 3.02047 6.90276C3.02047 6.6364 2.80447 6.42065 2.53836 6.42065Z" fill="#289678"/>
<path d="M21.563 11.5623C21.2966 11.5623 21.0809 11.778 21.0809 12.0444V12.5906H21.0488C20.7825 12.5906 20.5667 12.8066 20.5667 13.0727C20.5667 13.3388 20.7825 13.5548 21.0488 13.5548H21.563C21.8294 13.5548 22.0451 13.3388 22.0451 13.0727V12.0444C22.0451 11.778 21.8294 11.5623 21.563 11.5623Z" fill="#289678"/>
<path d="M2.02419 11.5623C1.75783 11.5623 1.54208 11.778 1.54208 12.0444V13.0727C1.54208 13.3388 1.75783 13.5548 2.02419 13.5548H2.53836C2.80447 13.5548 3.02047 13.3388 3.02047 13.0727C3.02047 12.8066 2.80447 12.5906 2.53836 12.5906H2.50629V12.0444C2.50629 11.778 2.2903 11.5623 2.02419 11.5623Z" fill="#289678"/>
</svg>
