<svg width="34" height="24" viewBox="0 0 34 24" fill="none" xmlns="http://www.w3.org/2000/svg">
<path d="M0.578125 0.5H32.9921V22.7925H0.578125V0.5Z" stroke="#289678"/>
<path d="M6.95992 5.56274L8.13101 7.93578L10.7495 8.31619L8.85456 10.1633L9.30211 12.7715L6.95992 11.54L4.6174 12.7715L5.06496 10.1633L3.17 8.31619L5.7885 7.93578L6.95992 5.56274Z" fill="#289678"/>
<path d="M13.8963 10.1174L14.3645 11.0656L15.4109 11.2175L14.6536 11.9558L14.8323 12.9978L13.8963 12.5059L12.9604 12.9978L13.1391 11.9558L12.3821 11.2175L13.4285 11.0656L13.8963 10.1174Z" fill="#289678"/>
<path d="M13.3422 5.97168L14.1975 6.59369L15.1944 6.24188L14.8671 7.24752L15.51 8.08704L14.4526 8.0864L13.8524 8.95709L13.5263 7.95114L12.513 7.64977L13.3686 7.02872L13.3422 5.97168Z" fill="#289678"/>
<path d="M11.9711 3.11042L11.7712 4.14883L12.5134 4.90225L11.4641 5.03301L10.977 5.97149L10.5285 5.01406L9.48524 4.84056L10.2573 4.11798L10.0995 3.07251L11.0255 3.58336L11.9711 3.11042Z" fill="#289678"/>
<path d="M11.9711 13.7491L11.7712 14.7875L12.5134 15.5406L11.4641 15.6714L10.977 16.6098L10.5285 15.6524L9.48524 15.4792L10.2573 14.7567L10.0995 13.7112L11.0255 14.222L11.9711 13.7491Z" fill="#289678"/>
</svg>
