<svg width="222" height="224" viewBox="0 0 222 224" fill="none" xmlns="http://www.w3.org/2000/svg">
<path d="M10.7834 88.7524L10.3539 91.1083L5.90964 93.1525L6.90469 94.5341L9.63564 95.0361L9.27536 96.9809L0.484375 95.3635L0.837814 93.4165L4.74626 94.1354L1.48668 89.899L1.91989 87.5259L4.81841 91.6064L10.7834 88.7524Z" fill="white"/>
<path d="M4.8078 76.5133C5.24085 75.2171 5.98576 74.3211 7.05668 73.8246C8.11666 73.3256 9.33602 73.3068 10.7071 73.7635C12.0899 74.224 13.0547 74.972 13.6175 76.0051C14.1717 77.0405 14.2288 78.2091 13.7957 79.5185C13.3556 80.8453 12.5989 81.764 11.5319 82.2723C10.461 82.7806 9.23369 82.8049 7.85479 82.3428C6.4837 81.8862 5.52606 81.1304 4.97497 80.0746C4.42388 79.0181 4.36692 77.8307 4.8078 76.5133ZM7.65707 75.5524C6.98482 75.7976 6.52506 76.2948 6.27805 77.0404C6.03103 77.7884 6.09892 78.4643 6.49446 79.0713C6.88999 79.6783 7.55051 80.1388 8.48147 80.449C9.43514 80.767 10.2522 80.8014 10.9323 80.5539C11.6163 80.3065 12.0799 79.8021 12.3308 79.0431C12.5739 78.3085 12.494 77.6389 12.0945 77.0374C11.692 76.432 11.0161 75.9714 10.0624 75.6519C9.13067 75.3417 8.32858 75.3088 7.65707 75.5524Z" fill="white"/>
<path d="M18.2638 67.5474L17.3897 69.2447L9.44238 65.1453L10.6313 62.8309L18.0887 63.8663L18.1043 63.8342L12.8928 58.4317L14.0817 56.1172L22.0326 60.2165L21.1585 61.9138L15.8741 59.189L15.8592 59.2196L20.1673 63.8421L19.2551 65.6176L12.9947 64.7914L12.9791 64.8219L18.2638 67.5474Z" fill="white"/>
<path d="M26.8103 52.9017L25.6481 54.5025L18.4189 49.2308L23.0419 42.8569L30.2707 48.1303L29.1165 49.7312L23.1443 45.3765L20.8381 48.5494L26.8103 52.9017Z" fill="white"/>
<path d="M40.2242 37.2069L38.8414 38.623L33.568 33.4561L31.6535 35.4165L34.3699 38.2463C35.179 39.0874 35.6505 39.9004 35.7795 40.6844C35.9124 41.4684 35.6996 42.1497 35.1336 42.7301C34.7881 43.0857 34.4577 43.3293 34.1497 43.4664L33.0405 42.3856C33.1695 42.344 33.3513 42.1952 33.6061 41.9368C34.1494 41.3736 33.9142 40.5591 32.8886 39.4916L29.2188 35.6797L33.8306 30.9482L40.2242 37.2069Z" fill="white"/>
<path d="M49.9832 25.5925C50.4014 26.4987 50.4811 27.3892 50.2301 28.268C49.9831 29.1475 49.451 29.8971 48.6428 30.5174C47.575 31.3414 46.4586 31.6475 45.2954 31.4369C44.1409 31.2293 43.1488 30.5824 42.3171 29.4977C41.4666 28.3879 41.0829 27.2216 41.1743 25.9998C41.265 24.7779 41.8089 23.7809 42.8071 23.0134C43.8444 22.2176 44.9388 21.9419 46.0816 22.1894C47.2331 22.4346 48.2814 23.1731 49.2233 24.4044L49.3493 24.568L44.1183 28.5953C44.6803 29.2979 45.2845 29.7122 45.9263 29.8438C46.5571 29.973 47.1801 29.8038 47.7836 29.3394C48.2167 29.0081 48.4863 28.6337 48.6004 28.2225C48.7106 27.8059 48.6762 27.3171 48.4863 26.7462L49.9832 25.5925ZM46.9775 24.7278C46.4764 24.1647 45.9294 23.8374 45.3408 23.7418C44.7553 23.6502 44.2009 23.799 43.6881 24.1945C43.1753 24.5885 42.8869 25.0741 42.8259 25.6466C42.761 26.2191 42.9324 26.8472 43.3388 27.5286L46.9775 24.7278Z" fill="white"/>
<path d="M64.2703 20.1796L62.1928 21.363L57.7785 19.2656L57.3564 20.9174L58.7274 23.3344L57.0098 24.3111L52.5918 16.5236L54.3094 15.5453L56.2697 19.0032L57.4125 13.7792L59.5098 12.5879L58.2487 17.4353L64.2703 20.1796Z" fill="white"/>
<path d="M75.5307 11.684C75.8113 12.757 75.7274 13.7336 75.2834 14.6148C74.8386 15.4974 74.1025 16.1482 73.0573 16.5657C71.8152 17.0646 70.6638 17.0662 69.6077 16.5751C68.5517 16.0825 67.7723 15.1975 67.2603 13.9186C66.7092 12.5448 66.6444 11.2994 67.0665 10.1904C67.4886 9.08054 68.328 8.26991 69.5928 7.76397C70.6598 7.3379 71.6211 7.2635 72.4833 7.5392C73.3455 7.81724 74.0219 8.41246 74.512 9.32412L72.6963 10.0548C72.3773 9.57154 72.0014 9.2552 71.5722 9.10326C71.1392 8.95288 70.6715 8.97794 70.1783 9.17531C69.4716 9.46119 69.023 9.94827 68.826 10.6422C68.6322 11.3385 68.7197 12.1476 69.0848 13.0726C69.4569 13.9976 69.9392 14.6367 70.5356 14.9946C71.1359 15.3565 71.7815 15.3941 72.4803 15.1144C73.0275 14.8959 73.4075 14.5513 73.628 14.0845C73.8406 13.6162 73.878 13.0569 73.7303 12.4061L75.5307 11.684Z" fill="white"/>
<path d="M84.7911 12.4345L82.869 12.9029L80.7568 4.20212L82.6712 3.72982L83.4998 7.13832L87.3058 6.2095L86.4741 2.8009L88.3963 2.33252L90.5123 11.0333L88.598 11.5032L87.6748 7.72573L83.8719 8.65462L84.7911 12.4345Z" fill="white"/>
<path d="M96.5757 3.73818C96.5874 1.70338 97.7873 0.567676 100.177 0.333495C101.29 0.223061 102.201 0.356212 102.908 0.729023C103.607 1.10184 104.006 1.74879 104.093 2.66985L104.538 7.19764C104.561 7.45062 104.606 7.61983 104.683 7.70598C104.754 7.79135 104.88 7.8258 105.066 7.80857C105.207 7.79369 105.352 7.76702 105.511 7.72864L105.644 9.11176C105.154 9.28877 104.736 9.39137 104.387 9.42583C103.551 9.50964 103.031 9.19721 102.837 8.49702C102.157 9.28493 101.154 9.74147 99.8173 9.8707C98.902 9.96234 98.1453 9.79473 97.5606 9.36866C96.972 8.94416 96.6413 8.32541 96.5616 7.50539C96.535 7.25241 96.5428 7.01436 96.5803 6.78958C96.6108 6.56323 96.6601 6.36895 96.721 6.19978C96.7781 6.0306 96.8844 5.86849 97.0361 5.71419C97.1916 5.5599 97.3175 5.4323 97.416 5.32813C97.5184 5.22709 97.6896 5.12293 97.9288 5.01798C98.164 4.91146 98.3431 4.83547 98.4603 4.78221C98.5783 4.73052 98.7831 4.66782 99.0763 4.59185C99.3725 4.51588 99.5664 4.46417 99.6649 4.43754C99.7603 4.41091 99.9612 4.36711 100.269 4.30054C100.96 4.13842 101.432 4.01701 101.679 3.92537C101.926 3.84 102.089 3.72723 102.165 3.59017C102.237 3.49149 102.256 3.2745 102.226 2.93928C102.134 2.04093 101.481 1.65093 100.265 1.77076C99.6235 1.83577 99.1638 2.00102 98.8902 2.2728C98.6135 2.54301 98.4611 2.96903 98.4384 3.55566L96.5757 3.73818ZM102.391 4.87848C102.255 4.97404 102.083 5.06104 101.897 5.14485C101.707 5.2263 101.555 5.2819 101.434 5.31245C101.32 5.34299 101.13 5.38444 100.876 5.44553C100.618 5.50427 100.45 5.54422 100.371 5.5638C100.135 5.62254 99.9487 5.67425 99.8126 5.71419C99.6758 5.75805 99.5164 5.82306 99.3186 5.91C99.1247 6.00163 98.9762 6.10034 98.8777 6.20686C98.7792 6.31729 98.6987 6.45832 98.6307 6.63298C98.5658 6.80842 98.5432 7.00967 98.5697 7.24229C98.612 7.66836 98.7824 7.98088 99.0864 8.18451C99.3905 8.38815 99.797 8.46248 100.302 8.4147C101.176 8.32698 101.825 8.02623 102.251 7.50855C102.49 7.21719 102.574 6.69247 102.498 5.93275L102.391 4.87848Z" fill="white"/>
<path d="M119.145 9.30549L117.17 9.22004L117.329 5.61338L115.65 5.54129L112.744 9.02729L110.423 8.92868L113.568 5.2233C112.846 4.96249 112.36 4.6006 112.102 4.14398C111.843 3.68737 111.729 3.13914 111.756 2.50317C111.791 1.71525 112.071 1.1177 112.6 0.706513C113.128 0.295324 113.862 0.108894 114.811 0.152754L119.533 0.356398L119.145 9.30549ZM117.39 4.17458L117.5 1.78028L115.107 1.67531C114.218 1.63693 113.758 2.00035 113.724 2.76399C113.69 3.59576 114.108 4.02971 114.986 4.06731L117.39 4.17458Z" fill="white"/>
<path d="M143.054 14.1583L141.154 13.6101L143.202 6.50396L140.573 5.74427L139.373 9.48012C139.012 10.5915 138.522 11.3943 137.895 11.8783C137.264 12.3671 136.566 12.4986 135.787 12.2739C135.312 12.1368 134.94 11.9653 134.674 11.7547L135.107 10.2704C135.198 10.3597 135.418 10.4514 135.76 10.5501C136.516 10.7686 137.121 10.1733 137.572 8.76278L139.19 3.71729L145.527 5.54999L143.054 14.1583Z" fill="white"/>
<path d="M156.942 9.78083C158.188 10.344 159.001 11.1797 159.385 12.2927C159.773 13.4064 159.67 14.6219 159.077 15.9408C158.481 17.2707 157.637 18.1621 156.555 18.6109C155.472 19.0636 154.306 19.0049 153.053 18.4394C151.78 17.8645 150.94 17.0178 150.545 15.8986C150.146 14.7817 150.245 13.556 150.849 12.2277C151.441 10.9087 152.285 10.0275 153.39 9.58581C154.496 9.1472 155.681 9.21221 156.942 9.78083ZM157.611 12.7195C157.432 12.0233 156.988 11.5164 156.274 11.193C155.556 10.8671 154.879 10.8735 154.238 11.2064C153.592 11.5353 153.064 12.1501 152.665 13.0469C152.251 13.9664 152.132 14.7747 152.311 15.4788C152.49 16.1814 152.946 16.6967 153.668 17.0241C154.374 17.3436 155.047 17.3326 155.688 16.9935C156.326 16.6528 156.855 16.0231 157.268 15.106C157.668 14.2076 157.786 13.4142 157.611 12.7195Z" fill="white"/>
<path d="M172.119 20.2104L168.484 17.9492L164.593 24.233L162.914 23.1897L167.628 15.5776L172.942 18.8852L172.119 20.2104Z" fill="white"/>
<path d="M175.039 31.5604L173.109 29.9728L178.785 23.0547L180.313 24.311L176.179 29.3526L176.217 29.3871L182.938 26.4734L184.864 28.0587L179.185 34.9784L177.657 33.7221L181.802 28.6805L181.76 28.6484L175.039 31.5604Z" fill="white"/>
<path d="M192.111 43.4411C191.206 44.0787 190.265 44.3449 189.284 44.2384C188.304 44.1318 187.438 43.6635 186.682 42.8356C185.778 41.8441 185.372 40.7672 185.463 39.6026C185.549 38.4419 186.104 37.3946 187.119 36.4665C188.213 35.4695 189.349 34.9706 190.538 34.9761C191.724 34.9816 192.772 35.4883 193.691 36.4963C194.459 37.3429 194.873 38.2186 194.915 39.1263C194.956 40.0341 194.641 40.8768 193.957 41.6553L192.639 40.2071C192.977 39.7388 193.143 39.2743 193.129 38.8162C193.121 38.3572 192.932 37.9311 192.574 37.5395C192.062 36.974 191.446 36.7234 190.728 36.7861C190.014 36.8471 189.284 37.2121 188.547 37.8826C187.814 38.5546 187.385 39.2336 187.263 39.9189C187.138 40.6058 187.324 41.2262 187.829 41.7838C188.227 42.2177 188.684 42.4573 189.201 42.4957C189.71 42.5357 190.248 42.3736 190.803 42.0047L192.111 43.4411Z" fill="white"/>
<path d="M203.318 51.9389L201.631 49.518L195.58 53.752L194.452 52.1284L200.499 47.896L198.812 45.475L200.093 44.5806L204.599 51.0437L203.318 51.9389Z" fill="white"/>
<path d="M201.449 63.4301L200.302 61.2073L208.249 57.1001L209.154 58.8584L203.364 61.8504L203.391 61.8981L210.712 61.8809L211.859 64.1036L203.912 68.2108L203.007 66.4525L208.796 63.4606L208.77 63.4129L201.449 63.4301Z" fill="white"/>
<path d="M209.386 82.4984L208.595 80.2357L211.448 76.2563L209.898 75.5483L207.277 76.4653L206.623 74.5966L215.068 71.6431L215.721 73.5103L211.972 74.8214L216.895 76.886L217.693 79.1642L213.158 77.056L209.386 82.4984Z" fill="white"/>
<path d="M216.865 86.6934C218.885 86.4976 220.135 87.58 220.61 89.9398C220.831 91.0395 220.793 91.9605 220.493 92.6991C220.193 93.4377 219.593 93.8982 218.681 94.0807L214.237 94.979C213.99 95.0284 213.823 95.0934 213.743 95.1772C213.667 95.2571 213.645 95.3887 213.678 95.5672C213.709 95.702 213.75 95.8508 213.804 96.0051L212.444 96.2776C212.224 95.8053 212.075 95.3965 212.007 95.0558C211.844 94.2295 212.095 93.682 212.775 93.4157C211.92 92.8182 211.365 91.8626 211.103 90.55C210.921 89.6406 211.008 88.8715 211.372 88.2434C211.737 87.6152 212.318 87.2236 213.123 87.0599C213.37 87.0106 213.61 86.991 213.838 87.0067C214.062 87.0184 214.263 87.0451 214.434 87.0866C214.609 87.1281 214.78 87.2197 214.951 87.3568C215.121 87.4938 215.259 87.6058 215.368 87.6951C215.483 87.7828 215.604 87.9426 215.73 88.1713C215.859 88.4 215.954 88.5692 216.018 88.6796C216.083 88.7916 216.166 88.9898 216.273 89.2757C216.375 89.5631 216.448 89.7511 216.485 89.8466C216.516 89.9383 216.584 90.1341 216.679 90.4325C216.908 91.106 217.082 91.5627 217.196 91.7992C217.302 92.0349 217.431 92.1877 217.576 92.2542C217.686 92.3153 217.899 92.3114 218.229 92.2448C219.11 92.0678 219.434 91.377 219.187 90.174C219.061 89.5404 218.852 89.0987 218.552 88.8512C218.256 88.6037 217.819 88.4971 217.237 88.5332L216.865 86.6934ZM216.321 92.6098C216.211 92.4782 216.109 92.3224 216.006 92.1438C215.908 91.9629 215.835 91.8125 215.798 91.6981C215.752 91.5838 215.691 91.4013 215.608 91.1538C215.516 90.9024 215.463 90.7426 215.433 90.6627C215.353 90.434 215.285 90.2515 215.232 90.1223C215.175 89.9907 215.091 89.8333 214.985 89.6461C214.878 89.4636 214.764 89.3266 214.646 89.2388C214.529 89.1511 214.376 89.083 214.198 89.0352C214.016 88.9898 213.814 88.9898 213.59 89.0336C213.169 89.119 212.876 89.325 212.705 89.6461C212.535 89.9696 212.496 90.3823 212.599 90.8813C212.77 91.7436 213.138 92.36 213.696 92.7328C214.008 92.9403 214.54 92.9685 215.288 92.8205L216.321 92.6098Z" fill="white"/>
<path d="M211.025 135.135L211.458 132.779L215.903 130.743L214.904 129.357L212.177 128.851L212.541 126.907L221.332 128.536L220.972 130.481L217.07 129.758L220.326 133.998L219.885 136.37L216.99 132.286L211.025 135.135Z" fill="white"/>
<path d="M217.02 147.296C216.587 148.59 215.842 149.488 214.771 149.985C213.711 150.483 212.488 150.502 211.121 150.043C209.738 149.583 208.774 148.836 208.211 147.802C207.656 146.769 207.599 145.598 208.032 144.292C208.473 142.964 209.229 142.044 210.3 141.537C211.368 141.027 212.595 141.004 213.978 141.466C215.346 141.923 216.303 142.679 216.854 143.735C217.403 144.792 217.457 145.979 217.02 147.296ZM214.171 148.255C214.843 148.012 215.307 147.517 215.55 146.769C215.797 146.021 215.732 145.347 215.333 144.738C214.939 144.131 214.277 143.672 213.346 143.36C212.389 143.041 211.576 143.006 210.897 143.254C210.213 143.503 209.749 144.007 209.498 144.764C209.255 145.501 209.335 146.169 209.733 146.774C210.136 147.38 210.812 147.84 211.766 148.156C212.697 148.468 213.499 148.503 214.171 148.255Z" fill="white"/>
<path d="M203.564 156.264L204.438 154.566L212.386 158.664L211.197 160.98L203.739 159.947L203.724 159.975L208.939 165.38L207.746 167.695L199.799 163.595L200.669 161.898L205.953 164.624L205.969 164.592L201.665 159.969L202.573 158.195L208.834 159.019L208.848 158.991L203.564 156.264Z" fill="white"/>
<path d="M195.017 170.91L196.18 169.307L203.409 174.579L198.782 180.953L191.557 175.681L192.715 174.081L198.683 178.432L200.989 175.261L195.017 170.91Z" fill="white"/>
<path d="M181.547 186.656L182.926 185.242L188.206 190.415L190.117 188.453L187.401 185.623C186.596 184.78 186.124 183.967 185.992 183.183C185.863 182.399 186.079 181.716 186.645 181.137C186.991 180.783 187.317 180.538 187.629 180.403L188.727 181.484C188.609 181.525 188.419 181.674 188.172 181.932C187.621 182.494 187.861 183.31 188.887 184.38L192.552 188.193L187.937 192.921L181.547 186.656Z" fill="white"/>
<path d="M171.848 198.22C171.43 197.314 171.35 196.422 171.601 195.542C171.848 194.665 172.38 193.914 173.185 193.294C174.257 192.47 175.373 192.162 176.536 192.373C177.691 192.582 178.686 193.229 179.514 194.312C180.365 195.422 180.749 196.591 180.657 197.813C180.566 199.034 180.023 200.027 179.024 200.797C177.991 201.594 176.9 201.87 175.746 201.623C174.599 201.378 173.55 200.639 172.608 199.408L172.482 199.244L177.713 195.215C177.151 194.513 176.547 194.099 175.905 193.969C175.275 193.839 174.652 194.007 174.048 194.473C173.615 194.804 173.345 195.177 173.231 195.59C173.121 196.006 173.155 196.496 173.345 197.066L171.848 198.22ZM174.854 199.084C175.355 199.647 175.902 199.973 176.491 200.066C177.079 200.161 177.631 200.013 178.143 199.617C178.656 199.222 178.941 198.738 179.006 198.163C179.07 197.592 178.899 196.964 178.493 196.283L174.854 199.084Z" fill="white"/>
<path d="M157.558 203.632L159.635 202.448L164.053 204.546L164.472 202.89L163.101 200.477L164.818 199.499L169.236 207.286L167.519 208.264L165.558 204.808L164.415 210.03L162.318 211.221L163.579 206.374L157.558 203.632Z" fill="white"/>
<path d="M146.302 212.127C146.024 211.056 146.104 210.079 146.549 209.197C146.989 208.314 147.73 207.663 148.771 207.248C150.017 206.749 151.165 206.746 152.221 207.236C153.277 207.729 154.055 208.614 154.572 209.893C155.123 211.269 155.187 212.512 154.766 213.623C154.344 214.733 153.5 215.541 152.24 216.048C151.176 216.474 150.211 216.55 149.349 216.273C148.487 215.997 147.811 215.401 147.32 214.488L149.136 213.759C149.455 214.24 149.831 214.56 150.26 214.709C150.693 214.861 151.161 214.837 151.654 214.64C152.361 214.352 152.813 213.865 153.006 213.169C153.2 212.474 153.113 211.664 152.745 210.741C152.376 209.818 151.893 209.175 151.294 208.817C150.697 208.459 150.052 208.417 149.353 208.697C148.802 208.918 148.426 209.262 148.205 209.73C147.993 210.194 147.95 210.754 148.099 211.404L146.302 212.127Z" fill="white"/>
<path d="M137.041 211.378L138.963 210.909L141.075 219.614L139.16 220.082L138.332 216.676L134.526 217.605L135.358 221.011L133.431 221.479L131.319 212.779L133.234 212.309L134.158 216.086L137.957 215.157L137.041 211.378Z" fill="white"/>
<path d="M125.257 220.074C125.245 222.109 124.045 223.245 121.656 223.477C120.542 223.588 119.631 223.455 118.924 223.082C118.222 222.709 117.83 222.064 117.735 221.14L117.295 216.615C117.272 216.359 117.227 216.193 117.154 216.106C117.078 216.021 116.948 215.987 116.766 216.005C116.629 216.017 116.481 216.044 116.317 216.081L116.188 214.7C116.679 214.524 117.1 214.418 117.445 214.384C118.281 214.304 118.802 214.613 118.996 215.317C119.676 214.529 120.679 214.069 122.015 213.939C122.931 213.848 123.686 214.015 124.272 214.441C124.861 214.866 125.191 215.488 125.271 216.305C125.298 216.558 125.29 216.797 125.252 217.022C125.218 217.247 125.172 217.441 125.111 217.61C125.054 217.779 124.948 217.943 124.793 218.096C124.641 218.25 124.515 218.382 124.417 218.484C124.314 218.583 124.143 218.69 123.908 218.794C123.665 218.899 123.489 218.977 123.371 219.03C123.254 219.082 123.045 219.145 122.756 219.221C122.46 219.295 122.266 219.348 122.168 219.375C122.073 219.401 121.871 219.447 121.564 219.512C120.872 219.672 120.402 219.798 120.155 219.885C119.909 219.972 119.748 220.087 119.669 220.22C119.597 220.321 119.574 220.538 119.608 220.871C119.695 221.771 120.353 222.161 121.568 222.039C122.21 221.978 122.669 221.811 122.947 221.54C123.221 221.266 123.372 220.84 123.395 220.256L125.257 220.074ZM119.437 218.935C119.578 218.838 119.745 218.75 119.935 218.668C120.121 218.587 120.278 218.53 120.395 218.499C120.513 218.473 120.703 218.427 120.957 218.366C121.216 218.309 121.382 218.267 121.462 218.248C121.697 218.189 121.884 218.139 122.02 218.097C122.157 218.056 122.32 217.989 122.514 217.902C122.708 217.812 122.856 217.713 122.955 217.605C123.053 217.494 123.137 217.353 123.202 217.18C123.263 217.003 123.285 216.804 123.263 216.571C123.221 216.145 123.046 215.831 122.746 215.629C122.442 215.425 122.036 215.349 121.531 215.398C120.657 215.484 120.003 215.785 119.578 216.302C119.343 216.595 119.259 217.121 119.335 217.882L119.437 218.935Z" fill="white"/>
<path d="M102.692 214.51L104.667 214.595L104.511 218.202L106.187 218.274L109.097 214.787L111.418 214.886L108.272 218.591C108.994 218.853 109.477 219.214 109.739 219.67C109.993 220.127 110.111 220.675 110.084 221.311C110.05 222.098 109.765 222.697 109.241 223.108C108.713 223.519 107.98 223.706 107.034 223.664L102.305 223.459L102.692 214.51ZM104.45 219.645L104.344 222.035L106.734 222.14C107.623 222.178 108.083 221.815 108.117 221.054C108.151 220.22 107.729 219.786 106.852 219.748L104.45 219.645Z" fill="white"/>
<path d="M78.7861 209.657L80.6856 210.205L78.6376 217.311L81.2664 218.071L82.4671 214.335C82.8275 213.222 83.3137 212.421 83.9445 211.935C84.5753 211.448 85.2741 211.316 86.0527 211.541C86.5272 211.678 86.8993 211.851 87.1619 212.063L86.7328 213.544C86.6421 213.456 86.4217 213.365 86.0801 213.266C85.3203 213.045 84.716 213.643 84.2642 215.055L82.65 220.098L76.3096 218.265L78.7861 209.657Z" fill="white"/>
<path d="M64.8101 213.996C63.5641 213.433 62.7551 212.596 62.3674 211.484C61.9796 210.369 62.0859 209.153 62.6785 207.834C63.2788 206.505 64.1183 205.615 65.201 205.165C66.2836 204.714 67.4541 204.773 68.7079 205.338C69.9805 205.915 70.8159 206.764 71.2114 207.881C71.6062 208.998 71.5076 210.223 70.9033 211.552C70.3108 212.871 69.4635 213.749 68.3621 214.19C67.2568 214.632 66.0718 214.566 64.8101 213.996ZM64.146 211.058C64.3203 211.754 64.7648 212.261 65.4793 212.584C66.1969 212.907 66.8811 212.904 67.5197 212.572C68.1654 212.243 68.6897 211.628 69.0885 210.73C69.5066 209.813 69.62 209.002 69.4457 208.302C69.2667 207.598 68.8149 207.084 68.0934 206.757C67.3828 206.437 66.7106 206.447 66.0727 206.785C65.431 207.126 64.9027 207.754 64.4884 208.671C64.085 209.565 63.9709 210.361 64.146 211.058Z" fill="white"/>
<path d="M49.7176 203.604L53.3532 205.865L57.2437 199.583L58.9227 200.626L54.2081 208.236L48.8936 204.93L49.7176 203.604Z" fill="white"/>
<path d="M46.7959 192.253L48.7219 193.842L43.0462 200.758L41.5225 199.502L45.6562 194.46L45.6142 194.428L38.8977 197.34L36.9717 195.753L42.6508 188.837L44.1779 190.094L40.0336 195.133L40.0748 195.167L46.7959 192.253Z" fill="white"/>
<path d="M29.7206 180.372C30.6211 179.733 31.5628 179.466 32.5469 179.574C33.5272 179.681 34.3934 180.147 35.1493 180.977C36.0529 181.969 36.4594 183.046 36.3688 184.209C36.2812 185.373 35.7269 186.418 34.7122 187.347C33.6186 188.344 32.4789 188.841 31.2931 188.838C30.1073 188.83 29.0593 188.325 28.14 187.315C27.3685 186.47 26.9578 185.593 26.9163 184.685C26.871 183.779 27.19 182.934 27.874 182.157L29.1927 183.604C28.8542 184.072 28.6877 184.537 28.7026 184.995C28.7104 185.454 28.8964 185.88 29.2568 186.276C29.7696 186.839 30.385 187.088 31.1034 187.025C31.821 186.968 32.5469 186.601 33.2802 185.929C34.0173 185.259 34.4425 184.578 34.5676 183.892C34.6927 183.207 34.5027 182.585 33.9978 182.031C33.603 181.594 33.1426 181.354 32.6298 181.316C32.1209 181.277 31.5817 181.441 31.0267 181.808L29.7206 180.372Z" fill="white"/>
<path d="M18.5147 171.873L20.2014 174.294L26.2526 170.062L27.3805 171.683L21.3327 175.917L23.0156 178.335L21.7392 179.23L17.2334 172.769L18.5147 171.873Z" fill="white"/>
<path d="M20.3493 160.317L21.492 162.539L13.5446 166.639L12.6411 164.88L18.4344 161.892L18.4115 161.847L11.0831 161.856L9.94727 159.634L17.8909 155.533L18.7916 157.291L13.006 160.281L13.0289 160.326L20.3493 160.317Z" fill="white"/>
<path d="M12.4503 141.316L13.2408 143.578L10.3885 147.557L11.9377 148.263L14.5553 147.347L15.2092 149.218L6.76819 152.172L6.11474 150.303L9.86365 148.992L4.94068 146.927L4.14258 144.651L8.67892 146.758L12.4503 141.316Z" fill="white"/>
<path d="M4.96761 137.118C2.94694 137.313 1.69311 136.231 1.22175 133.871C1.00132 132.771 1.03955 131.852 1.33894 131.112C1.63911 130.373 2.23934 129.911 3.15079 129.73L7.59551 128.832C7.84255 128.783 8.00976 128.718 8.08558 128.634C8.16531 128.554 8.18407 128.425 8.15046 128.244C8.12388 128.109 8.08191 127.96 8.02875 127.808L9.38866 127.534C9.60909 128.006 9.75769 128.415 9.8257 128.754C9.98907 129.583 9.73823 130.13 9.05816 130.396C9.91333 130.994 10.4675 131.949 10.7333 133.264C10.9123 134.172 10.8247 134.941 10.4597 135.569C10.0946 136.197 9.51365 136.589 8.70851 136.753C8.46149 136.802 8.22261 136.822 7.99436 136.806C7.77003 136.794 7.56908 136.768 7.39398 136.726C7.22279 136.684 7.0514 136.594 6.88099 136.456C6.7098 136.319 6.57296 136.208 6.45962 136.117C6.3494 136.03 6.22752 135.87 6.09854 135.642C5.96956 135.413 5.87437 135.244 5.81418 135.132C5.7493 135.022 5.66544 134.824 5.56303 134.538C5.45282 134.253 5.38414 134.062 5.34662 133.969C5.31301 133.876 5.24809 133.68 5.15272 133.381C4.92447 132.707 4.75005 132.251 4.63593 132.014C4.52962 131.778 4.40076 131.626 4.25615 131.558C4.14593 131.5 3.93336 131.502 3.6027 131.569C2.72174 131.746 2.39804 132.436 2.64506 133.64C2.767 134.276 2.97972 134.713 3.27598 134.961C3.57615 135.208 4.01313 135.316 4.59471 135.28L4.96761 137.118ZM5.50693 131.201C5.62106 131.333 5.72323 131.489 5.82564 131.667C5.92413 131.848 5.99688 131.995 6.03518 132.111C6.08052 132.226 6.13771 132.409 6.22526 132.656C6.31203 132.908 6.36999 133.068 6.39969 133.147C6.47943 133.376 6.54807 133.559 6.60122 133.688C6.65828 133.819 6.74186 133.977 6.84817 134.162C6.95448 134.347 7.06869 134.484 7.18672 134.571C7.30397 134.66 7.45231 134.726 7.63444 134.773C7.81345 134.818 8.01851 134.82 8.24207 134.777C8.66028 134.691 8.95638 134.485 9.12679 134.162C9.29798 133.838 9.33261 133.426 9.23334 132.928C9.05824 132.066 8.69373 131.449 8.13561 131.078C7.82449 130.867 7.29243 130.84 6.54435 130.989L5.50693 131.201Z" fill="white"/>
<path d="M110.918 187.487C69.3197 187.487 35.4785 153.586 35.4785 111.907C35.4785 70.2269 69.3197 36.3262 110.918 36.3262C152.516 36.3262 186.357 70.2269 186.357 111.907C186.357 153.586 152.516 187.487 110.918 187.487ZM110.918 43.986C73.5408 43.986 43.1236 74.4563 43.1236 111.907C43.1236 149.357 73.5408 179.827 110.918 179.827C148.295 179.827 178.712 149.357 178.712 111.907C178.712 74.4563 148.295 43.986 110.918 43.986Z" fill="white"/>
<path d="M105.506 142.19H112.604V100.194V93.1118V93.082H74.3625V86.1427H144.315V86.1529H148.853V88.9568L161.545 83.5416L148.853 76.2178V79.0193H144.315V79.0311H67.2646V81.7716V86.1427V93.082V95.7966V100.194H105.506V142.19Z" fill="white"/>
<path d="M119.397 93.082V100.194H142.559L143.214 100.193V107.557H126.495H119.474H119.397V147.393H98.7135V114.669V107.557H91.6158H72.9841V104.744L68.1082 107.557H68.0059V107.617L60.292 112.068L72.9841 117.483V114.669H91.6158V147.393V154.33V154.504H126.495V154.33V147.393V114.669H142.881H143.214V114.673H150.183V114.669V107.557V100.194V93.5104V93.082H119.397Z" fill="white"/>
</svg>
