<svg width="397" height="203" viewBox="0 0 397 203" fill="none" xmlns="http://www.w3.org/2000/svg">
<path d="M0.863037 150.003H10.063V174.482H15.129V150.003H24.329V145.625H0.863037V150.003Z" fill="white"/>
<path d="M50.066 158.96C51.307 158.474 52.308 157.683 53.064 156.588C53.82 155.494 54.2 154.258 54.2 152.88C54.2 150.665 53.395 148.902 51.788 147.592C50.181 146.282 47.863 145.625 44.838 145.625H31.665V174.482H46.378C49.08 174.482 51.276 173.699 52.965 172.132C54.654 170.565 55.497 168.511 55.497 165.971C55.497 164.134 55.012 162.607 54.039 161.391C53.064 160.175 51.741 159.365 50.066 158.96ZM36.61 149.719H43.66C45.416 149.719 46.775 149.975 47.734 150.489C48.694 151.003 49.173 152.069 49.173 153.69C49.173 155.122 48.712 156.142 47.793 156.75C46.874 157.359 45.443 157.662 43.497 157.662H36.609V149.719H36.61ZM48.767 169.375C47.658 170.024 46.132 170.348 44.189 170.348H36.61V161.31H44.107C45.023 161.31 45.823 161.364 46.498 161.472C47.173 161.58 47.829 161.782 48.463 162.079C49.097 162.377 49.585 162.843 49.921 163.478C50.26 164.114 50.428 164.904 50.428 165.848C50.429 167.551 49.876 168.727 48.767 169.375Z" fill="white"/>
<path d="M76.7321 144.937C72.4361 144.937 69.0371 146.363 66.5381 149.213C64.0391 152.063 62.7891 155.678 62.7891 160.054C62.7891 164.567 64.066 168.214 66.619 170.997C69.172 173.781 72.5171 175.171 76.6511 175.171C80.7581 175.171 84.0941 173.774 86.6611 170.976C89.2281 168.18 90.5101 164.54 90.5101 160.054C90.5101 155.569 89.2331 151.928 86.6801 149.132C84.1271 146.335 80.8121 144.937 76.7321 144.937ZM83.0341 167.937C81.4541 169.922 79.3501 170.914 76.7321 170.914C74.0021 170.914 71.8481 169.929 70.2671 167.955C68.6871 165.983 67.8951 163.323 67.8951 159.971C67.8951 156.702 68.6921 154.089 70.2861 152.129C71.8801 150.171 74.0021 149.191 76.6501 149.191C79.3251 149.191 81.4531 150.171 83.0331 152.129C84.6131 154.089 85.4021 156.715 85.4021 160.011C85.4041 163.31 84.6151 165.95 83.0341 167.937Z" fill="white"/>
<path d="M122.405 174.482V145.625H116.529L104.125 167.754V145.625H99.059V174.482H104.939L117.339 152.353V174.482H122.405Z" fill="white"/>
<path d="M110.734 144.045C112.786 144.045 114.353 143.579 115.434 142.646C116.516 141.715 117.163 140.275 117.38 138.33H115.03C114.515 140.383 113.084 141.409 110.734 141.409C108.381 141.409 106.95 140.383 106.438 138.33H104.088C104.302 140.275 104.95 141.714 106.031 142.646C107.113 143.578 108.679 144.045 110.734 144.045Z" fill="white"/>
<path d="M145.023 150.003H154.222V174.482H159.288V150.003H168.488V145.625H145.023V150.003Z" fill="white"/>
<path d="M180.846 161.634H195.477V157.541H180.846V149.88H196.613V145.625H175.82V174.482H196.857V170.145H180.846V161.634Z" fill="white"/>
<path d="M228.104 154.421C228.104 151.502 227.204 149.307 225.407 147.834C223.61 146.362 221.16 145.625 218.051 145.625H205.528V174.482H210.594V163.377H218.742C221.631 163.377 223.914 162.573 225.592 160.966C227.264 159.358 228.104 157.176 228.104 154.421ZM217.647 159.284H210.594V149.84H217.2C221.174 149.84 223.158 151.408 223.158 154.541C223.158 157.703 221.32 159.284 217.647 159.284Z" fill="white"/>
<path d="M243.625 145.625H236.531V174.482H241.316V152.232L249.542 174.482H253.676L261.702 152.232V174.482H266.524V145.625H259.471L251.689 168.2L243.625 145.625Z" fill="white"/>
<path d="M299.878 174.482V145.625H294.001L281.597 167.754V145.625H276.531V174.482H282.411L294.811 152.353V174.482H299.878Z" fill="white"/>
<path d="M314.913 161.513H328.127V174.482H333.193V145.625H328.127V157.095H314.913V145.625H309.847V174.482H314.913V161.513Z" fill="white"/>
<path d="M351.023 145.584L339.877 174.481H345.106L347.944 166.821H359.372L362.129 174.481H367.561L356.415 145.584H351.023ZM349.24 163.012L353.74 150.854L358.036 163.012H349.24Z" fill="white"/>
<path d="M377.489 162.364C377.408 164.688 377.177 166.505 376.798 167.815C376.421 169.126 375.988 169.97 375.502 170.348C375.017 170.726 374.38 170.914 373.596 170.914C372.813 170.914 372.151 170.807 371.612 170.59V174.481C372.664 174.832 373.677 175.008 374.65 175.008C376.865 175.008 378.67 174.089 380.06 172.251C381.45 170.415 382.228 167.578 382.391 163.74L382.917 150.002H391.835V174.481H396.901V145.624H378.054L377.489 162.364Z" fill="white"/>
<path d="M72.032 193.403H69.587L65.963 197.431V193.403H63.957V202.478H65.963V199.664L67.159 198.415L70.007 202.478H72.436L68.495 197.043L72.032 193.403Z" fill="white"/>
<path d="M80.912 193.139C79.505 193.139 78.383 193.573 77.546 194.44C76.706 195.309 76.288 196.474 76.288 197.94C76.288 199.417 76.703 200.59 77.535 201.457C78.367 202.326 79.495 202.759 80.912 202.759C82.308 202.759 83.411 202.326 84.227 201.457C85.043 200.589 85.449 199.417 85.449 197.94C85.449 196.474 85.04 195.308 84.218 194.44C83.398 193.572 82.294 193.139 80.912 193.139ZM82.75 200.323C82.3 200.904 81.679 201.194 80.896 201.194C80.086 201.194 79.454 200.907 78.996 200.332C78.538 199.758 78.31 198.961 78.31 197.94C78.31 196.944 78.538 196.158 78.996 195.583C79.454 195.008 80.08 194.721 80.877 194.721C81.674 194.721 82.3 195.006 82.75 195.573C83.203 196.142 83.428 196.926 83.428 197.922C83.427 198.943 83.203 199.743 82.75 200.323Z" fill="white"/>
<path d="M95.864 200.613H95.828L93.297 193.403H90.657V202.478H92.592V196.446H92.627L94.79 202.478H96.812L98.975 196.446H99.011V202.478H100.946V193.403H98.309L95.864 200.613Z" fill="white"/>
<path d="M106.554 202.478H108.56V194.986H112.534V202.478H114.539V193.403H106.554V202.478Z" fill="white"/>
<path d="M121.329 198.767C121.28 200.267 120.86 201.018 120.061 201.018C119.698 201.018 119.459 200.988 119.34 200.93V202.495C119.657 202.624 120.069 202.689 120.573 202.689C121.392 202.689 122.039 202.364 122.516 201.712C122.99 201.061 123.245 200.144 123.28 198.961L123.402 194.986H126.18V202.478H128.186V193.403H121.485L121.329 198.767Z" fill="white"/>
<path d="M137.723 193.139C136.444 193.139 135.392 193.602 134.565 194.528C133.738 195.455 133.326 196.627 133.326 198.046C133.326 199.43 133.727 200.564 134.53 201.449C135.332 202.334 136.422 202.777 137.793 202.777C138.823 202.777 139.712 202.501 140.457 201.95C141.2 201.399 141.685 200.63 141.907 199.646H139.991C139.79 200.221 139.519 200.64 139.172 200.904C138.825 201.167 138.378 201.3 137.828 201.3C137.053 201.3 136.448 201.051 136.015 200.552C135.581 200.053 135.354 199.347 135.329 198.432H142.03V198.222C142.03 196.65 141.645 195.41 140.87 194.502C140.097 193.593 139.048 193.139 137.723 193.139ZM135.365 197.096C135.46 196.299 135.709 195.689 136.113 195.266C136.517 194.845 137.048 194.633 137.704 194.633C138.36 194.633 138.897 194.853 139.314 195.293C139.729 195.732 139.967 196.334 140.027 197.096H135.365Z" fill="white"/>
<path d="M155.152 193.403H152.707L149.083 197.431V193.403H147.077V202.478H149.083V199.664L150.278 198.415L153.127 202.478H155.556L151.615 197.043L155.152 193.403Z" fill="white"/>
<path d="M165.36 200.587C164.978 200.945 164.49 201.124 163.891 201.124C163.129 201.124 162.533 200.842 162.107 200.28C161.679 199.717 161.465 198.932 161.465 197.923C161.465 196.915 161.687 196.12 162.132 195.539C162.579 194.959 163.189 194.669 163.962 194.669C164.501 194.669 164.949 194.822 165.298 195.127C165.65 195.432 165.886 195.871 166.003 196.446H167.99C167.873 195.402 167.459 194.588 166.751 194.001C166.041 193.414 165.106 193.121 163.946 193.121C162.561 193.121 161.463 193.564 160.647 194.449C159.831 195.334 159.424 196.526 159.424 198.028C159.424 199.423 159.828 200.551 160.638 201.413C161.446 202.275 162.53 202.706 163.891 202.706C165.029 202.706 165.973 202.374 166.724 201.711C167.475 201.05 167.919 200.16 168.06 199.046H166.089C165.983 199.717 165.742 200.229 165.36 200.587Z" fill="white"/>
<path d="M179.105 196.955H175.132V193.403H173.126V202.478H175.132V198.538H179.105V202.478H181.111V193.403H179.105V196.955Z" fill="white"/>
<path d="M194.453 201C194.388 200.907 194.355 200.73 194.355 200.473V195.865C194.355 194.926 194.016 194.235 193.344 193.789C192.669 193.344 191.764 193.121 190.625 193.121C188.188 193.121 186.863 194.147 186.651 196.199H188.551C188.632 195.613 188.825 195.196 189.131 194.95C189.435 194.704 189.917 194.58 190.573 194.58C191.814 194.58 192.438 195.038 192.438 195.951C192.438 196.291 192.395 196.508 192.313 196.603C192.221 196.732 192.045 196.828 191.787 196.893C191.527 196.957 191.042 197.037 190.326 197.13C190.009 197.165 189.8 197.191 189.702 197.209C189.602 197.226 189.398 197.259 189.095 197.306C188.789 197.352 188.575 197.397 188.453 197.438C188.331 197.479 188.141 197.541 187.889 197.622C187.637 197.705 187.455 197.793 187.344 197.886C187.233 197.98 187.092 198.097 186.921 198.237C186.753 198.378 186.628 198.531 186.552 198.695C186.476 198.859 186.408 199.053 186.351 199.275C186.291 199.499 186.262 199.738 186.262 199.996C186.262 200.829 186.539 201.488 187.089 201.975C187.639 202.462 188.385 202.706 189.322 202.706C190.683 202.706 191.743 202.343 192.507 201.615C192.634 202.343 193.128 202.706 193.984 202.706C194.334 202.706 194.767 202.641 195.285 202.512V201.105C195.12 201.128 194.968 201.14 194.827 201.14C194.642 201.142 194.515 201.094 194.453 201ZM192.42 198.996C192.42 199.77 192.284 200.292 192.016 200.56C191.534 201.041 190.848 201.282 189.959 201.282C189.441 201.282 189.04 201.164 188.753 200.93C188.466 200.696 188.322 200.361 188.322 199.927C188.322 199.692 188.363 199.49 188.447 199.321C188.528 199.15 188.626 199.016 188.737 198.916C188.848 198.817 189.005 198.732 189.211 198.661C189.417 198.59 189.588 198.54 189.729 198.512C189.87 198.482 190.065 198.45 190.312 198.414C190.393 198.403 190.567 198.379 190.83 198.344C191.093 198.309 191.288 198.283 191.41 198.265C191.532 198.247 191.695 198.207 191.892 198.142C192.093 198.078 192.269 198.005 192.421 197.922V198.996H192.42Z" fill="white"/>
<path d="M200.684 194.062C200.169 194.502 199.911 195.12 199.911 195.917C199.911 196.562 200.052 197.111 200.334 197.562C200.613 198.013 201.125 198.356 201.863 198.591L198.838 202.478H201.196L203.991 198.82H205.699V202.478H207.702V193.403H202.902C201.939 193.403 201.202 193.622 200.684 194.062ZM205.699 194.933V197.361H203.254C202.362 197.361 201.918 196.938 201.918 196.094C201.918 195.32 202.368 194.934 203.271 194.934H205.699V194.933Z" fill="white"/>
<path d="M222.9 198.767C222.851 200.267 222.431 201.018 221.631 201.018C221.268 201.018 221.029 200.988 220.91 200.93V202.495C221.227 202.624 221.639 202.689 222.143 202.689C222.962 202.689 223.609 202.364 224.086 201.712C224.56 201.061 224.815 200.144 224.85 198.961L224.972 194.986H227.75V202.478H229.756V193.403H223.055L222.9 198.767Z" fill="white"/>
<path d="M239.554 193.139C238.147 193.139 237.025 193.573 236.187 194.44C235.347 195.309 234.929 196.474 234.929 197.94C234.929 199.417 235.344 200.59 236.176 201.457C237.008 202.326 238.136 202.759 239.553 202.759C240.949 202.759 242.052 202.326 242.868 201.457C243.684 200.589 244.091 199.417 244.091 197.94C244.091 196.474 243.682 195.308 242.86 194.44C242.039 193.572 240.936 193.139 239.554 193.139ZM241.392 200.323C240.942 200.904 240.321 201.194 239.538 201.194C238.728 201.194 238.096 200.907 237.638 200.332C237.18 199.758 236.952 198.961 236.952 197.94C236.952 196.944 237.18 196.158 237.638 195.583C238.096 195.008 238.722 194.721 239.519 194.721C240.316 194.721 240.942 195.006 241.392 195.573C241.845 196.142 242.07 196.926 242.07 197.922C242.069 198.943 241.844 199.743 241.392 200.323Z" fill="white"/>
<path d="M249.296 202.478H251.301V194.986H255.646V193.403H249.296V202.478Z" fill="white"/>
<path d="M262.363 200.015H262.312V193.403H260.306V202.478H262.84L266.234 195.865H266.285V202.478H268.291V193.403H265.76L262.363 200.015Z" fill="white"/>
<path d="M279.451 200.587C279.069 200.945 278.581 201.124 277.982 201.124C277.22 201.124 276.624 200.842 276.199 200.28C275.771 199.717 275.557 198.932 275.557 197.923C275.557 196.915 275.779 196.12 276.224 195.539C276.671 194.959 277.281 194.669 278.054 194.669C278.593 194.669 279.041 194.822 279.39 195.127C279.742 195.432 279.978 195.871 280.095 196.446H282.082C281.965 195.402 281.551 194.588 280.843 194.001C280.133 193.414 279.198 193.121 278.038 193.121C276.653 193.121 275.555 193.564 274.739 194.449C273.923 195.334 273.516 196.526 273.516 198.028C273.516 199.423 273.92 200.551 274.73 201.413C275.538 202.275 276.622 202.706 277.983 202.706C279.122 202.706 280.065 202.374 280.816 201.711C281.567 201.05 282.011 200.16 282.152 199.046H280.181C280.074 199.717 279.833 200.229 279.451 200.587Z" fill="white"/>
<path d="M286.037 194.986H289.03V202.478H291.033V194.986H294.023V193.403H286.037V194.986Z" fill="white"/>
<path d="M300.74 200.015H300.688V193.403H298.682V202.478H301.217L304.61 195.865H304.662V202.478H306.668V193.403H304.136L300.74 200.015Z" fill="white"/>
<path d="M320.372 193.403H317.927L314.303 197.431V193.403H312.297V202.478H314.303V199.664L315.499 198.415L318.347 202.478H320.776L316.835 197.043L320.372 193.403Z" fill="white"/>
<path d="M332.974 201C332.909 200.907 332.876 200.73 332.876 200.473V195.865C332.876 194.926 332.537 194.235 331.865 193.789C331.19 193.344 330.285 193.121 329.146 193.121C326.709 193.121 325.384 194.147 325.172 196.199H327.072C327.153 195.613 327.346 195.196 327.652 194.95C327.956 194.704 328.438 194.58 329.094 194.58C330.335 194.58 330.959 195.038 330.959 195.951C330.959 196.291 330.916 196.508 330.834 196.603C330.742 196.732 330.566 196.828 330.308 196.893C330.048 196.957 329.563 197.037 328.847 197.13C328.53 197.165 328.321 197.191 328.224 197.209C328.124 197.226 327.92 197.259 327.617 197.306C327.311 197.352 327.097 197.397 326.975 197.438C326.853 197.478 326.663 197.541 326.411 197.622C326.159 197.705 325.977 197.793 325.866 197.886C325.755 197.98 325.614 198.097 325.443 198.237C325.275 198.378 325.15 198.531 325.074 198.695C324.998 198.859 324.93 199.053 324.873 199.275C324.813 199.499 324.784 199.738 324.784 199.996C324.784 200.829 325.06 201.488 325.611 201.975C326.161 202.462 326.907 202.706 327.844 202.706C329.205 202.706 330.265 202.343 331.029 201.615C331.156 202.343 331.65 202.706 332.506 202.706C332.856 202.706 333.289 202.641 333.807 202.512V201.105C333.642 201.128 333.49 201.14 333.349 201.14C333.163 201.142 333.036 201.094 332.974 201ZM330.941 198.996C330.941 199.77 330.806 200.292 330.537 200.56C330.055 201.041 329.369 201.282 328.48 201.282C327.962 201.282 327.561 201.164 327.274 200.93C326.987 200.696 326.843 200.361 326.843 199.927C326.843 199.692 326.884 199.49 326.968 199.321C327.049 199.15 327.147 199.016 327.258 198.916C327.369 198.817 327.526 198.732 327.732 198.661C327.938 198.59 328.109 198.54 328.25 198.512C328.391 198.482 328.586 198.45 328.833 198.414C328.914 198.403 329.088 198.379 329.351 198.344C329.614 198.309 329.809 198.283 329.931 198.265C330.053 198.247 330.216 198.207 330.413 198.142C330.614 198.078 330.79 198.005 330.942 197.922V198.996H330.941Z" fill="white"/>
<path d="M198.883 108.005C228.565 108.005 252.712 83.862 252.712 54.181C252.712 24.5 228.565 0.356934 198.883 0.356934C169.201 0.356934 145.054 24.5 145.054 54.181C145.054 83.862 169.201 108.005 198.883 108.005ZM198.883 5.81091C225.553 5.81091 247.257 27.5099 247.257 54.1799C247.257 80.8499 225.553 102.55 198.883 102.55C172.213 102.55 150.509 80.8499 150.509 54.1799C150.509 27.5099 172.213 5.81091 198.883 5.81091Z" fill="white"/>
<path d="M195.022 75.7461H200.086V45.8391V40.7961V40.7751H172.799V35.8331H222.713V35.8401H225.95V37.8371L235.007 33.9801L225.95 28.7651V30.7601H222.713V30.7691H167.735V32.7201V35.8331V40.7751V42.7081V45.8391H195.022V75.7461Z" fill="white"/>
<path d="M171.816 56.1479H185.11V79.4509V84.3919V84.5159H209.998V84.3919V79.4509V56.1479H221.69H221.927V56.1499H226.9V56.1479V51.0829V45.8389V41.0799V40.7749H204.933V45.8389H221.459L221.927 45.8379V51.0829H209.998H204.988H204.933V79.4509H190.175V56.1479V51.0829H185.11H171.816V49.0799L168.337 51.0829H168.263V51.1249L162.759 54.2949L171.816 58.1519V56.1479Z" fill="white"/>
</svg>
