<svg width="120" height="127" viewBox="0 0 120 127" fill="none" xmlns="http://www.w3.org/2000/svg">
<g filter="url(#filter0_d_9_0)">
<path fill-rule="evenodd" clip-rule="evenodd" d="M106 13C106 11.8954 105.105 11 104 11H16C14.8954 11 14 11.8954 14 13V101C14 102.105 14.8954 103 16 103H52.1506C52.681 103 53.1897 103.211 53.5648 103.586L58.6066 108.628C59.3877 109.409 60.654 109.409 61.435 108.628L66.4768 103.586C66.8519 103.211 67.3606 103 67.8911 103H104C105.105 103 106 102.105 106 101V13Z" fill="#289678"/>
</g>
<path d="M82.9993 56.0951C82.9975 59.1145 82.3993 62.1037 81.239 64.8911C80.0787 67.6785 78.3793 70.2091 76.2383 72.3375C74.0974 74.4659 71.5571 76.1501 68.7635 77.2934C65.9699 78.4367 62.9779 79.0166 59.9596 78.9996C46.2926 78.9711 36.9103 67.6544 37.0006 55.8335C37.091 44.1077 46.5114 32.9384 60.1355 33.0003C63.1551 33.0064 66.1437 33.6097 68.9295 34.7752C71.7153 35.9408 74.2432 37.6457 76.368 39.792C78.4928 41.9383 80.1725 44.4835 81.3106 47.2814C82.4486 50.0792 83.0225 53.0746 82.9993 56.0951ZM53.478 57.0845C53.478 57.7885 53.478 58.3546 53.478 58.9207C53.478 62.2505 53.478 65.5376 53.478 68.8436C53.478 69.3193 53.3306 69.8711 53.7966 70.4086C54.9617 70.5181 56.2123 70.4419 57.4582 70.4562C58.7042 70.4705 60.0832 70.4895 61.3909 70.4562C62.6273 70.4181 63.8827 70.6465 65.2238 70.2564C65.2238 69.6761 65.2571 69.11 65.2618 68.5487C65.2618 65.1856 65.2618 61.8177 65.2618 58.4545C65.2618 57.9788 65.1191 57.4175 65.6945 56.9228H68.1388C68.9948 56.9228 69.8507 56.9228 70.7067 56.9228C71.5627 56.9228 72.3949 57.0655 73.1795 56.7848C73.4648 54.6632 73.403 50.8672 73.0844 49.7731C72.9816 49.7264 72.8727 49.6943 72.761 49.678C69.6827 49.678 66.6044 49.678 63.5261 49.678C63.3111 49.713 63.1027 49.7804 62.9079 49.8778C62.7694 50.5801 62.807 51.3057 63.0173 51.9899C63.5689 52.0184 64.073 52.0612 64.577 52.066C66.289 52.066 67.9961 52.066 69.7081 52.066C70.0992 52.0928 70.4883 52.1436 70.8731 52.2182V54.4254C68.2149 54.6585 65.6089 54.3493 62.9222 54.6252C62.8155 56.1195 62.7869 57.6184 62.8366 59.1157C62.8366 60.5428 62.8366 61.9699 62.8366 63.3969C62.8366 64.824 62.8366 66.351 62.808 67.8352C61.5907 68.2395 60.4303 68.0492 59.3223 68.0445C58.2143 68.0397 57.0683 68.2728 55.8652 67.7971C55.8652 67.212 55.8652 66.6507 55.8652 66.0846C55.8652 62.7215 55.8652 59.3536 55.8652 55.9904C55.8652 55.5528 55.7844 55.1152 55.7368 54.5919C55.0806 54.5681 54.5242 54.5253 53.9631 54.5253C52.0609 54.5253 50.2016 54.5253 48.3184 54.5253C48.0356 54.5575 47.7492 54.5316 47.4767 54.4492C47.2091 54.2764 46.9674 54.0666 46.7587 53.826C46.0929 54.1971 45.4842 54.5063 44.9088 54.8726C44.3334 55.2388 43.6011 55.4624 43.0875 56.1236C44.3443 56.7788 45.6514 57.3323 46.9964 57.779C47.0015 57.6577 47.0315 57.5388 47.0847 57.4297C47.1379 57.3206 47.2131 57.2237 47.3056 57.1451C47.398 57.0664 47.5057 57.0078 47.6219 56.9728C47.7381 56.9378 47.8603 56.9273 47.9808 56.9418C49.5215 56.9418 51.0575 56.9418 52.5983 56.9418C52.8943 56.9699 53.1882 57.0176 53.478 57.0845ZM73.2366 44.1219C72.8133 44.5976 72.5565 44.9496 72.0002 44.883C71.5456 44.8558 71.0899 44.8558 70.6354 44.883C62.8271 44.883 55.0187 44.883 47.2104 44.883C46.6017 44.883 45.9645 44.7451 45.3083 45.0781C45.2591 45.355 45.2258 45.6345 45.2084 45.9153C45.2084 47.6278 45.2084 49.3355 45.2084 51.048C45.2494 51.3923 45.3242 51.7317 45.4319 52.0612H49.6024C51.029 52.0612 52.4556 52.0612 53.8822 52.0612C55.2327 52.0612 56.5975 51.9423 57.91 52.1659C58.2619 52.8223 58.1335 53.4645 58.1335 54.0686C58.1335 57.5459 58.1335 61.0232 58.1335 64.5006C58.1335 65.0524 57.9813 65.647 58.4331 66.1464C59.1008 66.3198 59.8068 66.2714 60.4446 66.0085C60.5015 65.7869 60.5397 65.561 60.5587 65.333C60.5587 60.3161 60.5587 55.2991 60.5587 50.2821C60.5219 50.0785 60.4596 49.8803 60.3733 49.6923C59.8359 49.6923 59.2796 49.6304 58.7232 49.6257C55.4753 49.6257 52.2273 49.6257 48.9794 49.6257C48.5467 49.6257 48.0569 49.7684 47.6717 49.3022C47.5257 48.6473 47.5686 47.9644 47.7953 47.3328C48.1425 47.3091 48.4183 47.271 48.6989 47.271C56.336 47.271 63.9731 47.271 71.6102 47.271C71.9169 47.2291 72.229 47.2829 72.5039 47.4251C72.7788 47.5673 73.0031 47.7909 73.1462 48.0654C73.6217 47.8799 74.0735 47.7277 74.492 47.5564C74.9104 47.3852 75.3242 47.1854 75.7474 47.0141C76.2067 46.8795 76.622 46.6251 76.9505 46.2768L73.2366 44.1219Z" fill="white"/>
<defs>
<filter id="filter0_d_9_0" x="0" y="0" width="120" height="126.213" filterUnits="userSpaceOnUse" color-interpolation-filters="sRGB">
<feFlood flood-opacity="0" result="BackgroundImageFix"/>
<feColorMatrix in="SourceAlpha" type="matrix" values="0 0 0 0 0 0 0 0 0 0 0 0 0 0 0 0 0 0 127 0" result="hardAlpha"/>
<feOffset dy="3"/>
<feGaussianBlur stdDeviation="7"/>
<feColorMatrix type="matrix" values="0 0 0 0 0 0 0 0 0 0 0 0 0 0 0 0 0 0 0.25 0"/>
<feBlend mode="normal" in2="BackgroundImageFix" result="effect1_dropShadow_9_0"/>
<feBlend mode="normal" in="SourceGraphic" in2="effect1_dropShadow_9_0" result="shape"/>
</filter>
</defs>
</svg>
