<svg width="33" height="33" viewBox="0 0 33 33" fill="none" xmlns="http://www.w3.org/2000/svg">
<path d="M20.1666 13.3779L15.2293 18.0412L12.8598 15.6035C12.5971 15.333 12.1645 15.3269 11.8944 15.5896C11.6239 15.8525 11.6178 16.2848 11.8804 16.5553L14.7224 19.4726C14.9864 19.7383 15.4131 19.7473 15.6881 19.493L21.1186 14.3708C21.2505 14.2464 21.3275 14.0747 21.3326 13.8936C21.3377 13.7125 21.2705 13.5368 21.1459 13.4052C20.8816 13.1304 20.4458 13.1184 20.1666 13.3779Z" fill="#289678"/>
<path d="M16.503 6.20117C10.8603 6.20117 6.27213 10.7894 6.27213 16.432C6.27213 22.075 10.8603 26.6631 16.503 26.6631C22.1459 26.6631 26.7341 22.075 26.7341 16.432C26.7341 10.7894 22.1459 6.20117 16.503 6.20117ZM16.503 25.2935C11.6136 25.2935 7.64173 21.3147 7.64173 16.432C7.64173 11.5493 11.6136 7.57078 16.503 7.57078C21.3972 7.57078 25.3645 11.5381 25.3645 16.432C25.3645 21.326 21.3972 25.2935 16.503 25.2935Z" fill="#289678"/>
<path d="M30.5827 12.6655L30.8087 8.60451C30.8245 8.33193 30.6763 8.07593 30.4321 7.95395L26.8163 6.12558L24.9879 2.50976C24.8635 2.26768 24.6091 2.12028 24.3373 2.13312L20.2695 2.35247L16.8797 0.112952C16.6512 -0.0376508 16.3551 -0.0376508 16.1264 0.112952L12.7366 2.35247L8.67595 2.12643C8.4031 2.11038 8.14737 2.25858 8.02539 2.50308L6.19675 6.11889L2.5812 7.94726C2.33885 8.07138 2.19172 8.32578 2.20456 8.59783L2.43033 12.6588L0.191077 16.0485C0.0404742 16.277 0.0404742 16.5731 0.191077 16.8018L2.42364 20.1983L2.1976 24.2592C2.18182 24.5318 2.32975 24.7878 2.57425 24.9098L6.19006 26.7382L8.01843 30.354C8.14255 30.5963 8.39695 30.7435 8.66899 30.7306L12.7299 30.5046L16.1197 32.7438C16.3468 32.8992 16.6459 32.8992 16.873 32.7438L20.2628 30.5046L24.3237 30.7306C24.5963 30.7464 24.852 30.5982 24.9743 30.354L26.8026 26.7382L30.4185 24.9098C30.6605 24.7854 30.8079 24.5313 30.7951 24.2592L30.5691 20.1983L32.8083 16.8085C32.9589 16.5801 32.9589 16.2837 32.8083 16.0552L30.5827 12.6655ZM29.3089 19.6368C29.2254 19.7593 29.1866 19.9067 29.1994 20.0546L29.4116 23.8962L25.9945 25.6219C25.8642 25.6871 25.7586 25.7931 25.6933 25.9233L23.9674 29.3404L20.1258 29.1283C19.9787 29.1229 19.8334 29.1609 19.708 29.2377L16.503 31.3539L13.2984 29.2377C13.1871 29.1625 13.056 29.1219 12.9217 29.1213H12.8875L9.04564 29.3337L7.31999 25.9164C7.25472 25.7861 7.14905 25.6805 7.01851 25.6152L3.5945 23.8962L3.80689 20.0546C3.81224 19.9075 3.77399 19.7623 3.69722 19.6368L1.58128 16.4319L3.69722 13.2269C3.78094 13.1047 3.81973 12.957 3.80689 12.8094L3.5945 8.96751L7.01182 7.24186C7.1421 7.17659 7.24776 7.07093 7.31303 6.94066L9.03868 3.52333L12.8805 3.73572C13.0274 3.7408 13.1726 3.70282 13.2984 3.62605L16.503 1.51011L19.708 3.62605C19.8305 3.70977 19.9781 3.74856 20.1258 3.73572L23.9674 3.52333L25.6933 6.94066C25.7586 7.07093 25.8642 7.17659 25.9945 7.24186L29.4116 8.96751L29.1994 12.8094C29.1941 12.9562 29.2324 13.1015 29.3089 13.2269L31.4251 16.4319L29.3089 19.6368Z" fill="#289678"/>
</svg>
