<svg width="35" height="30" viewBox="0 0 35 30" fill="none" xmlns="http://www.w3.org/2000/svg">
<path d="M9.90087 11.9043H4.28273C4.00228 11.9043 3.77492 12.1316 3.77492 12.4121C3.77492 12.6926 4.00228 12.9199 4.28273 12.9199H9.90087C10.1813 12.9199 10.4087 12.6926 10.4087 12.4121C10.4087 12.1316 10.1813 11.9043 9.90087 11.9043Z" fill="#289678"/>
<path d="M9.90087 9.38037H4.28273C4.00228 9.38037 3.77492 9.60767 3.77492 9.88818C3.77492 10.1687 4.00228 10.396 4.28273 10.396H9.90087C10.1813 10.396 10.4087 10.1687 10.4087 9.88818C10.4087 9.60767 10.1813 9.38037 9.90087 9.38037Z" fill="#289678"/>
<path d="M33.5188 19.7186C33.4287 19.7186 33.3492 19.662 33.3207 19.5779C33.224 19.2913 33.1068 19.0086 32.9724 18.7375C32.9327 18.6571 32.9487 18.5603 33.0127 18.4964C33.4905 18.0184 33.4905 17.2408 33.0127 16.7628L31.8597 15.6099C31.3818 15.1321 30.6042 15.1319 30.126 15.6102C30.0623 15.6739 29.9655 15.6899 29.8852 15.6502C29.614 15.5157 29.3312 15.3985 29.0449 15.3019C28.9606 15.2735 28.904 15.1938 28.904 15.1037C28.904 14.4279 28.3541 13.8779 27.6782 13.8779H26.0477C25.3719 13.8779 24.822 14.4279 24.822 15.1037C24.822 15.1938 24.7653 15.2735 24.6813 15.3018C24.3948 15.3985 24.112 15.5157 23.8408 15.6501C23.7606 15.6901 23.6637 15.674 23.5998 15.6099C23.1219 15.1321 22.3442 15.1321 21.8663 15.6099L20.7134 16.7628C20.2355 17.2408 20.2355 18.0184 20.7136 18.4966C20.7773 18.5602 20.7934 18.657 20.7536 18.7373C20.6192 19.0086 20.502 19.2914 20.4054 19.5777C20.3769 19.6619 20.2972 19.7185 20.2072 19.7185C19.5313 19.7185 18.9814 20.2683 18.9814 20.9443V22.5747C18.9814 23.2506 19.5313 23.8005 20.2072 23.8005C20.2972 23.8005 20.3768 23.8571 20.4053 23.9412C20.502 24.2276 20.6192 24.5103 20.7536 24.7816C20.7934 24.8619 20.7773 24.9587 20.7134 25.0226C20.2343 25.5016 20.2343 26.2771 20.7134 26.7562L21.8663 27.909C22.3453 28.3881 23.1206 28.3883 23.6 27.9089C23.6637 27.8452 23.7605 27.829 23.8409 27.8689C24.1121 28.0032 24.3948 28.1205 24.6812 28.2171C24.7653 28.2456 24.822 28.3253 24.822 28.4153C24.822 29.0912 25.3719 29.6411 26.0477 29.6411H27.6782C28.3541 29.6411 28.904 29.0913 28.904 28.4153C28.904 28.3253 28.9605 28.2456 29.0448 28.2171C29.3312 28.1205 29.6139 28.0033 29.8853 27.8688C29.9655 27.829 30.0623 27.8452 30.1262 27.909C30.6052 28.3881 31.3806 28.3882 31.8597 27.9091L33.0126 26.7562C33.4916 26.2774 33.4919 25.5018 33.0125 25.0225C32.9487 24.9588 32.9326 24.862 32.9724 24.7817C33.1068 24.5105 33.224 24.2277 33.3207 23.9413C33.3492 23.8571 33.4288 23.8005 33.5188 23.8005C34.1947 23.8005 34.7446 23.2506 34.7446 22.5748V20.9443C34.7446 20.2684 34.1947 19.7186 33.5188 19.7186ZM33.729 22.5747C33.729 22.6906 33.6347 22.7849 33.5188 22.7849C32.9927 22.7849 32.5264 23.1191 32.3585 23.6163C32.2763 23.8598 32.1767 24.1002 32.0624 24.3307C31.8289 24.8018 31.9221 25.3683 32.2945 25.7408C32.3765 25.8228 32.3766 25.9558 32.2945 26.038L31.1416 27.1909C31.0599 27.2725 30.927 27.2735 30.8441 27.1906C30.4719 26.8184 29.9053 26.7253 29.4344 26.9588C29.2037 27.0731 28.9633 27.1726 28.7199 27.2549C28.2226 27.4227 27.8884 27.8891 27.8884 28.4153C27.8884 28.5311 27.7941 28.6254 27.6783 28.6254H26.0478C25.932 28.6254 25.8376 28.5311 25.8376 28.4153C25.8376 27.8891 25.5035 27.4228 25.0063 27.2549C24.7628 27.1726 24.5224 27.073 24.2919 26.9589C24.1189 26.8731 23.9331 26.8314 23.7486 26.8314C23.4309 26.8314 23.1175 26.9552 22.8818 27.1909C22.8001 27.2725 22.6671 27.2734 22.5846 27.1908L21.4317 26.038C21.3504 25.9566 21.3488 25.8237 21.4319 25.7405C21.804 25.3684 21.8972 24.8018 21.6637 24.3308C21.5494 24.1001 21.4498 23.8597 21.3676 23.6162C21.1997 23.1189 20.7333 22.7849 20.2072 22.7849C20.0914 22.7849 19.9971 22.6905 19.9971 22.5747V20.9443C19.9971 20.8284 20.0914 20.7341 20.2072 20.7341C20.7333 20.7341 21.1996 20.4 21.3676 19.9026C21.4498 19.6592 21.5494 19.4188 21.6636 19.1883C21.8971 18.717 21.8039 18.1504 21.4316 17.7783C21.3497 17.6963 21.3497 17.5629 21.4316 17.4809L22.5845 16.3281C22.6665 16.2461 22.7998 16.2462 22.8819 16.3282C23.2541 16.7004 23.8206 16.7936 24.2918 16.5601C24.5224 16.4458 24.7627 16.3463 25.0063 16.2641C25.5035 16.0961 25.8376 15.6297 25.8376 15.1037C25.8376 14.9878 25.9319 14.8936 26.0477 14.8936H27.6782C27.7941 14.8936 27.8884 14.9879 27.8884 15.1037C27.8884 15.6297 28.2225 16.096 28.7199 16.2642C28.9633 16.3463 29.2036 16.4459 29.4342 16.5602C29.9053 16.7936 30.472 16.7004 30.8443 16.3281C30.9262 16.2461 31.0596 16.2461 31.1416 16.3281L32.2944 17.4809C32.3763 17.5629 32.3763 17.6963 32.2943 17.7784C31.9221 18.1505 31.8289 18.717 32.0624 19.1883C32.1766 19.4187 32.2762 19.6591 32.3584 19.9027C32.5264 20.4 32.9927 20.7341 33.5188 20.7341C33.6346 20.7341 33.7289 20.8284 33.7289 20.9443V22.5747H33.729Z" fill="#289678"/>
<path d="M26.8636 18.2954C24.9534 18.2954 23.3994 19.8494 23.3994 21.7596C23.3994 23.6698 24.9534 25.2238 26.8636 25.2238C28.7738 25.2238 30.3278 23.6698 30.3278 21.7596C30.3278 19.8494 28.7738 18.2954 26.8636 18.2954ZM26.8636 24.2082C25.5134 24.2082 24.415 23.1097 24.415 21.7596C24.415 20.4095 25.5134 19.311 26.8636 19.311C28.2138 19.311 29.3122 20.4095 29.3122 21.7596C29.3122 23.1097 28.2138 24.2082 26.8636 24.2082Z" fill="#289678"/>
<path d="M18.6196 25.9527C18.6195 25.9527 18.6194 25.9527 18.6194 25.9527L2.40295 25.9581C2.40281 25.9581 2.40268 25.9581 2.40254 25.9581C1.67935 25.9581 1.09381 25.3728 1.09381 24.6493V7.91636C1.09381 7.19473 1.68091 6.60756 2.40261 6.60756H18.027C18.9341 6.60756 19.7638 6.0745 20.141 5.24954L21.7264 1.78147C21.9387 1.31712 22.4059 1.01691 22.9165 1.01684L30.1152 1.01562H30.1155C30.8386 1.01562 31.4242 1.60082 31.4242 2.32435L31.4254 13.8123C31.4254 14.0928 31.6528 14.32 31.9333 14.32C32.2137 14.32 32.4411 14.0927 32.441 13.8122L32.4399 2.32421C32.4397 1.03986 31.4005 0 30.1155 0C30.1154 0 30.1152 0 30.115 0L22.9163 0.00121859C22.0094 0.00142172 21.1798 0.53442 20.8027 1.35924L20.5331 1.94898L2.40322 1.94403C2.40302 1.94403 2.40281 1.94403 2.40261 1.94403C1.11819 1.94403 0.078125 2.98335 0.078125 4.26845V24.6493C0.078125 25.9337 1.11738 26.9737 2.40247 26.9737H2.40322L18.6197 26.9683C18.9001 26.9683 19.1274 26.7408 19.1274 26.4603C19.1272 26.18 18.8999 25.9527 18.6196 25.9527ZM2.40261 2.95965H2.40295L20.0688 2.96453L19.2172 4.82731C19.0049 5.29179 18.5376 5.59194 18.0269 5.59194H2.40254C1.91748 5.59194 1.46682 5.74151 1.09375 5.99663V4.26845C1.09375 3.54519 1.67901 2.95965 2.40261 2.95965Z" fill="#289678"/>
</svg>
