<svg width="33" height="37" viewBox="0 0 33 37" fill="none" xmlns="http://www.w3.org/2000/svg">
<path d="M28.7092 2.98692H21.5255C21.4499 2.98692 21.3742 2.98692 21.2986 3.02473C21.223 2.94911 21.1096 2.83568 21.0339 2.76006L18.0092 0.453709C17.1774 -0.151236 16.0431 -0.151236 15.2492 0.453709L12.2244 2.76006C12.111 2.83568 12.0354 2.9113 11.9598 2.98692H4.51138C2.43188 2.98692 0.730469 4.68833 0.730469 6.76783V8.28019C0.730469 9.26323 1.37322 10.095 2.24283 10.3975V32.478C2.24283 34.6331 4.43576 36.2589 6.40183 36.2589H27.1968C29.2763 36.2589 30.9777 34.5575 30.9777 32.478V10.4353C31.8852 10.095 32.4901 9.26323 32.4901 8.28019V6.76783C32.4901 4.68833 30.7887 2.98692 28.7092 2.98692ZM12.8294 4.5749C12.8294 4.31024 12.9428 4.12119 13.094 3.96995L16.1566 1.62579C16.27 1.51236 16.459 1.47455 16.6103 1.47455C16.7615 1.47455 16.9506 1.51236 17.1018 1.62579L20.1265 3.93214C20.3534 4.12119 20.429 4.31024 20.429 4.53709V5.25546C20.429 5.67136 20.0887 6.01164 19.6728 6.01164H13.5856C13.1697 6.01164 12.8294 5.67136 12.8294 5.25546V4.5749ZM30.9777 8.28019C30.9777 8.69609 30.6753 8.96075 30.3728 9.03637C30.3728 9.03637 30.335 9.03637 30.335 9.07418C30.2972 9.07418 30.2594 9.07418 30.2216 9.07418C29.8057 9.07418 29.4654 9.41446 29.4654 9.83036V32.5158C29.4654 33.7635 28.4445 34.7844 27.1968 34.7844H6.40183C5.19194 34.7844 3.7552 33.7635 3.7552 32.5158V10.5487H18.5007C18.9166 10.5487 19.2569 10.2085 19.2569 9.79255C19.2569 9.37665 18.9166 9.03637 18.5007 9.03637H2.99901C2.58311 9.03637 2.24283 8.69609 2.24283 8.28019V6.76783C2.24283 5.52013 3.26368 4.49928 4.51138 4.49928H11.317C11.317 4.53709 11.317 4.53709 11.317 4.5749V5.25546C11.317 6.50316 12.3379 7.52401 13.5856 7.52401H19.6728C20.9205 7.52401 21.9414 6.50316 21.9414 5.25546V4.5749C21.9414 4.53709 21.9414 4.53709 21.9414 4.49928H28.7092C29.9569 4.49928 30.9777 5.52013 30.9777 6.76783V8.28019Z" fill="#289678"/>
<path d="M25.3066 9.03638H24.1723C23.7564 9.03638 23.4161 9.37666 23.4161 9.79256C23.4161 10.2085 23.7564 10.5487 24.1723 10.5487H25.3066C25.7225 10.5487 26.0628 10.2085 26.0628 9.79256C26.0628 9.37666 25.7225 9.03638 25.3066 9.03638Z" fill="#289678"/>
<path d="M8.29206 15.0857H7.53588C7.11998 15.0857 6.77969 15.426 6.77969 15.8419C6.77969 16.2578 7.11998 16.5981 7.53588 16.5981H8.29206C8.70796 16.5981 9.04824 16.2578 9.04824 15.8419C9.04824 15.426 8.70796 15.0857 8.29206 15.0857Z" fill="#289678"/>
<path d="M8.29206 19.6233H7.53588C7.11998 19.6233 6.77969 19.9636 6.77969 20.3795C6.77969 20.7954 7.11998 21.1357 7.53588 21.1357H8.29206C8.70796 21.1357 9.04824 20.7954 9.04824 20.3795C9.04824 19.9636 8.70796 19.6233 8.29206 19.6233Z" fill="#289678"/>
<path d="M11.6951 16.5981H22.2817C22.6976 16.5981 23.0379 16.2578 23.0379 15.8419C23.0379 15.426 22.6976 15.0857 22.2817 15.0857H11.6951C11.2792 15.0857 10.939 15.426 10.939 15.8419C10.939 16.2578 11.2792 16.5981 11.6951 16.5981Z" fill="#289678"/>
<path d="M24.1721 19.6233H11.6951C11.2792 19.6233 10.939 19.9636 10.939 20.3795C10.939 20.7954 11.2792 21.1357 11.6951 21.1357H24.1721C24.588 21.1357 24.9283 20.7954 24.9283 20.3795C24.9283 19.9636 24.588 19.6233 24.1721 19.6233Z" fill="#289678"/>
<path d="M8.29206 24.1599H7.53588C7.11998 24.1599 6.77969 24.5002 6.77969 24.9161C6.77969 25.332 7.11998 25.6723 7.53588 25.6723H8.29206C8.70796 25.6723 9.04824 25.332 9.04824 24.9161C9.04824 24.5002 8.70796 24.1599 8.29206 24.1599Z" fill="#289678"/>
<path d="M20.0131 24.1599H11.6951C11.2792 24.1599 10.939 24.5002 10.939 24.9161C10.939 25.332 11.2792 25.6723 11.6951 25.6723H20.0131C20.429 25.6723 20.7693 25.332 20.7693 24.9161C20.7693 24.5002 20.429 24.1599 20.0131 24.1599Z" fill="#289678"/>
</svg>
