<svg width="31" height="31" viewBox="0 0 31 31" fill="none" xmlns="http://www.w3.org/2000/svg">
<path d="M22.6042 30.9998C22.5292 30.9998 22.4556 30.9868 22.3833 30.961L15.5 28.4578L8.61671 30.961C8.41908 31.0333 8.19692 31.0036 8.02512 30.8835C7.85333 30.7621 7.75 30.5645 7.75 30.3539V28.4862C7.75 27.8145 8.091 27.1997 8.66062 26.8432L12.9167 24.1837V15.8086L0.886083 20.6213C0.688458 20.7001 0.461125 20.6755 0.284167 20.5567C0.107208 20.4353 0 20.2351 0 20.0207V18.7833C0 17.7306 0.514083 16.7412 1.37692 16.138L12.9167 8.05994V2.58331C12.9167 1.15862 14.0753 0 15.5 0C16.9247 0 18.0833 1.15862 18.0833 2.58331V8.05994L29.6231 16.1367C30.4859 16.7412 31 17.7306 31 18.7833V20.0207C31 20.2351 30.8928 20.4353 30.7158 20.5554C30.5389 20.6755 30.3115 20.7001 30.1139 20.62L18.0833 15.8073V24.1824L22.3394 26.8432C22.909 27.201 23.25 27.8145 23.25 28.4862V30.3539C23.25 30.5645 23.1467 30.7621 22.9749 30.8835C22.8651 30.9597 22.7346 30.9998 22.6042 30.9998ZM15.5 27.1248C15.5749 27.1248 15.6498 27.1377 15.7209 27.1635L21.9583 29.4317V28.4862C21.9583 28.2627 21.8447 28.0574 21.6548 27.9385L17.0952 25.0891C16.9066 24.9716 16.7917 24.7636 16.7917 24.5415V14.8541C16.7917 14.6396 16.8989 14.4394 17.0758 14.3193C17.2541 14.2005 17.4814 14.1759 17.6777 14.2547L29.7083 19.0674V18.7833C29.7083 18.1517 29.3996 17.5588 28.8817 17.1958L17.0668 8.92535C16.895 8.80393 16.7917 8.60631 16.7917 8.39577V2.58331C16.7917 1.87161 16.2117 1.29166 15.5 1.29166C14.7883 1.29166 14.2083 1.87161 14.2083 2.58331V8.39577C14.2083 8.60631 14.105 8.80393 13.9332 8.92535L2.11833 17.1958C1.60037 17.5575 1.29167 18.1517 1.29167 18.7833V19.0674L13.3222 14.2547C13.5186 14.1733 13.7459 14.1992 13.9242 14.3193C14.1011 14.4394 14.2083 14.6396 14.2083 14.8541V24.5415C14.2083 24.7636 14.0934 24.9716 13.9048 25.0891L9.34521 27.9385C9.15533 28.0574 9.04167 28.2627 9.04167 28.4862V29.4317L15.2791 27.1635C15.3502 27.1377 15.4251 27.1248 15.5 27.1248Z" fill="#289678"/>
</svg>
